<?xml version="1.0" encoding="UTF-8"?>
<svg id="_圖層_1" xmlns="http://www.w3.org/2000/svg" version="1.1" viewBox="0 0 38.6 41.5">
  <!-- Generator: Adobe Illustrator 29.8.6, SVG Export Plug-In . SVG Version: 2.1.1 Build 1)  -->
  <defs>
    <style>
      .st0 {
        fill: #5061ff;
      }
    </style>
  </defs>
  <g id="layout">
    <path class="st0" d="M9,5.5v-2.9c0-1.6.8-2.6,2-2.6s1.9,1,2,2.5v2.9h12.6v-3c0-1.5.8-2.4,2-2.4s2,.9,2,2.4v3.1h2.9c3.8,0,6.1,2.3,6.1,6.1v23.9c0,3.7-2.3,6-6,6.1H6c-3.7,0-6-2.4-6-6.1V11.6C0,2.8,2.3,5.5,6.1,5.5s1.8,0,2.9,0ZM23.4,28.4v-5.5h-8.3v5.5h8.3ZM15.1,18.7h8.3v-4.8h-8.3s0,4.8,0,4.8ZM23.4,37.4v-4.8h-8.3v4.8h8.3ZM11,23h-7v5.5h6.9v-5.5h.1ZM34.5,23h-7v5.5h7v-5.5ZM4.1,13.9v4.8h6.9v-4.8s-6.9,0-6.9,0ZM27.6,13.9v4.8h6.9v-4.8s-6.9,0-6.9,0ZM11,37.5v-4.8h-7v3.4c0,.8.4,1.3,1.3,1.4,0,0,5.7,0,5.7,0ZM27.5,37.5h5.6c.5,0,1.2-.7,1.3-1.1.2-1.2,0-2.4,0-3.6h-7v4.8h.1Z"/>
  </g>
</svg>