<?xml version="1.0" encoding="UTF-8"?>
<svg id="Layer_1" xmlns="http://www.w3.org/2000/svg" version="1.1" viewBox="0 0 24 24">
  <!-- Generator: Adobe Illustrator 29.5.1, SVG Export Plug-In . SVG Version: 2.1.0 Build 141)  -->
  <defs>
    <style>
      .st0 {
        fill: #fff;
      }
    </style>
  </defs>
  <path class="st0" d="M24,3v7c0,.55-.45,1-1,1s-1-.45-1-1V3.41l-11.79,11.79c-.19.19-.45.29-.71.29s-.51-.1-.71-.29c-.39-.39-.39-1.02,0-1.41L20.59,2h-6.59c-.55,0-1-.45-1-1s.45-1,1-1h7c1.65,0,3,1.35,3,3ZM23,14c-.55,0-1,.45-1,1v4c0,1.65-1.35,3-3,3H5c-1.65,0-3-1.35-3-3V5c0-1.65,1.35-3,3-3h4c.55,0,1-.45,1-1s-.45-1-1-1h-4C2.24,0,0,2.24,0,5v14c0,2.76,2.24,5,5,5h14c2.76,0,5-2.24,5-5v-4c0-.55-.45-1-1-1Z"/>
</svg>