<?xml version="1.0" encoding="UTF-8"?>
<svg id="_圖層_1" data-name="圖層_1" xmlns="http://www.w3.org/2000/svg" version="1.1" viewBox="0 0 111.5 49.5">
  <!-- Generator: Adobe Illustrator 29.8.6, SVG Export Plug-In . SVG Version: 2.1.1 Build 1)  -->
  <defs>
    <style>
      .st0 {
        fill: #dd2a2a;
      }

      .st1 {
        fill: #fff;
      }

      .st2 {
        display: none;
      }
    </style>
  </defs>
  <g id="_圖層_2" class="st2">
    <g>
      <g>
        <path class="st0" d="M251.6,27.2c.6-.2.8-.5.8-.7s-.3-.4-.9-.5l-3.4-.4v16.6c.1,0,3.4,0,3.4,0v-15.3.2Z"/>
        <path class="st0" d="M247.2,34.6h0l-2.5-2.7-1.8,2v-7.3h3.9c.4,0,1.2.1,0-1.1h0l-2.3-2.3-1.6,1.8h-8.2l.3,1.7h3.5v7.6h-4.3l.3,1.5h4v11.7l4.4-.8v-10.9h4.4c.4,0,1.2.2,0-1.1h0Z"/>
      </g>
      <path class="st0" d="M257.1,47.5c.6-.5,1-1.3,1-2.2v-20.7c.7-.4,1-.7,1-1s-.3-.4-.9-.5l-4.5-.4v21.2s.2,3.1-.8,4.4l4.2-.8h0Z"/>
    </g>
    <g>
      <path class="st0" d="M225.1,44v-4.8c.6-.2.8-.5.8-.7s-.1-.3-.4-.6l-2.9-2-1.6,1.4h-2.3l-3.7-1v9.7l3.8-.6v-2.2h2.1v1.1l4.1-.6h0v.3ZM218.9,42.2v-3.4h2.1v3.4h-2.1Z"/>
      <path class="st0" d="M232.1,24.7l-3.8-2.3-1.7,2h-13.1l-4.2-.7v11.9c0,2-.7,8.6-3.7,12.3,0,0,7.4-1.1,8-12.3h0v-1.7l.2.9h12.4c.3,0,1,0,.2-.9h0l-.2-.2-.2-.2-1.8-1.9-1.4,1.7h-1v-2.6h3.9c.3,0,1.3.1,0-1.2h0l-1.8-1.8-1.4,1.5h-.8v-1.2c.5-.2.8-.4.8-.6s-.3-.4-.9-.5l-3.9-.3v2.6h-3.5l.3,1.4h3.2v2.6h-4.3v-7.4h13.3v18.1s.2,3.1-.8,4.4l4.2-.8c.6-.5,1-1.3,1-2.2v-19.2h.2c.7-.4,1.1-.7,1.1-1s-.1-.4-.4-.6h0v.2Z"/>
    </g>
    <path class="st0" d="M180.5,7.7c.5-.7,1-1.4,1.5-2.1,0,0,1.4,0,1.6-1,0,0,0-.8-1.2-1.2l-8.2-2.7s-8.1,18-25.4,28.3c0,0,16.4-3.2,29.2-18.2.6.8,2.6,3.1,5.6,6,7.1,8.3,17.6,11.6,17.6,11.6.8-1.7,8.2-9.1,8.2-9.1-16.9-1.5-27.3-10.1-29-11.5h0Z"/>
    <path class="st0" d="M188.3,24.1l-4.7-4.2s-.8-.8-1.4.2l-2.4,3.5h-14.4l.4,1.9h21.7s2,.2.7-1.5h0Z"/>
    <path class="st0" d="M195,31.7l-5.8-2.7-2.8,1.9h-27.1l.5,2.1h25.7l-8.2,11.8c-1.8,2.1-1.4,1.7-2.4,2.5l7.8,1.2c1.9.2,3.4-2,3.4-2l8.1-11.7c1-.3,1.5-.9,1.5-.9,1-1.1-.7-2.1-.7-2.1h0Z"/>
  </g>
  <g id="navbar">
    <g>
      <g>
        <g>
          <g>
            <path class="st1" d="M104,27.4c.6-.2.8-.5.8-.7s-.3-.4-.9-.5l-3.4-.3v16.6c0,0,3.5,0,3.5,0v-15.3h0Z"/>
            <path class="st1" d="M99.7,34.8h0l-2.5-2.7-1.8,2v-7.3h3.9c.4,0,1.1.1,0-1.1h0l-2.3-2.3-1.6,1.7h-8.2l.3,1.7h3.5v7.6h-4.3l.3,1.5h4v11.7l4.4-.8v-10.9h4.4c.4,0,1.2.2,0-1.1h-.1Z"/>
          </g>
          <path class="st1" d="M109.5,47.7c.6-.5,1-1.3,1-2.2v-20.7c.7-.4,1-.7,1-1s-.3-.4-.9-.5l-4.5-.4v21.2s.2,3.1-.8,4.4c0,0,4.2-.8,4.2-.8Z"/>
        </g>
        <g>
          <path class="st1" d="M77.6,44.2v-4.8c.6-.2.8-.5.8-.6s0-.3-.4-.6l-2.9-2-1.7,1.4h-2.3l-3.7-1v9.7l3.8-.6v-2.2h2.1v1.1l4.1-.6.2.2ZM71.4,42.3v-3.4h2.1v3.4h-2.1Z"/>
          <path class="st1" d="M84.5,24.8l-3.8-2.3-1.7,2h-13.1l-4.2-.7v11.8c0,2-.7,8.6-3.7,12.3,0,0,7.4-1.1,8-12.3h0v-1.7l.2.9h12.4c.3,0,1,0,.2-.9h0l-.2-.2-.2-.2-1.8-1.9-1.4,1.7h-1v-2.6h3.9c.3,0,1.3.1,0-1.2h0l-1.8-1.8-1.4,1.5h-.8v-1.2c.5-.2.8-.4.8-.7s-.3-.4-.9-.5l-3.9-.3v2.6h-3.5l.3,1.4h3.2v2.6h-4.3v-7.4h13.3v18.1s.2,3.1-.8,4.4l4.2-.8c.6-.5,1-1.3,1-2.2v-19.2h.2c.7-.4,1.1-.7,1.1-1s0-.3-.4-.6v.4Z"/>
        </g>
      </g>
      <g>
        <path class="st1" d="M33,7.9c.5-.7,1-1.4,1.5-2.1,0,0,1.4,0,1.6-1,0,0,0-.8-1.2-1.1L26.8.9S18.7,18.9,1.4,29.2c0,0,16.4-3.2,29.2-18.2.6.8,2.6,3.2,5.6,6,7.1,8.3,17.6,11.6,17.6,11.6.8-1.7,8.2-9.1,8.2-9.1-16.9-1.5-27.3-10.1-28.9-11.5h-.1Z"/>
        <path class="st1" d="M40.8,24.3l-4.7-4.2s-.8-.8-1.4.2l-2.4,3.6h-14.4l.4,1.9h21.7s2,.2.7-1.5h.1Z"/>
        <path class="st1" d="M47.4,31.8l-5.8-2.7-2.8,1.9H11.7l.5,2h25.6l-8.2,11.8c-1.7,2.1-1.4,1.7-2.4,2.5l7.8,1.2c1.9.2,3.4-2,3.4-2l8.1-11.7c1-.3,1.5-.9,1.5-.9,1-1.1-.7-2.1-.7-2.1h.1Z"/>
      </g>
    </g>
  </g>
</svg>