<?xml version="1.0" encoding="UTF-8"?>
<svg xmlns="http://www.w3.org/2000/svg" version="1.1" viewBox="0 0 512 512">
  <!-- Generator: Adobe Illustrator 28.7.6, SVG Export Plug-In . SVG Version: 1.2.0 Build 188)  -->
  <g>
    <g id="_喇뒨쏛_1" data-name="喇뒨쏛_1">
      <g id="_喇뒨쏛_1-2" data-name="_喇뒨쏛_1">
        <g id="Outline">
          <path d="M494.7,165c-13.8-13.9-36.4-14-50.3-.2,0,0-.1.1-.2.2l-162.9,162.9c-13.8,13.9-36.4,14-50.3.2,0,0-.1-.1-.2-.2L67.8,165c-13.8-13.9-36.4-14-50.3-.2,0,0-.1.1-.2.2-13.8,13.9-13.8,36.3,0,50.2l163.3,163.3c41.7,41.6,109.1,41.6,150.8,0l163.3-163.3c13.8-13.9,13.8-36.3,0-50.2Z"/>
        </g>
      </g>
    </g>
  </g>
</svg>