<?xml version="1.0" encoding="UTF-8"?>
<svg xmlns="http://www.w3.org/2000/svg" version="1.1" viewBox="0 0 512 512">
  <defs>
    <style>
      .cls-1 {
        fill: #fff;
      }
    </style>
  </defs>
  <!-- Generator: Adobe Illustrator 28.7.5, SVG Export Plug-In . SVG Version: 1.2.0 Build 176)  -->
  <g>
    <g id="_圖層_1" data-name="圖層_1">
      <g id="Outline">
        <path class="cls-1" d="M494.7,165c-13.8-13.9-36.4-14-50.3-.2,0,0-.1.1-.2.2l-162.9,162.9c-13.8,13.9-36.4,14-50.3.2,0,0-.1-.1-.2-.2L67.8,165c-13.8-13.9-36.4-14-50.3-.2,0,0-.1.1-.2.2-13.8,13.9-13.8,36.3,0,50.2l163.3,163.3c41.7,41.6,109.1,41.6,150.8,0l163.3-163.3c13.8-13.9,13.8-36.3,0-50.2Z"/>
      </g>
    </g>
  </g>
</svg>