<?xml version="1.0" encoding="UTF-8"?>
<svg xmlns="http://www.w3.org/2000/svg" version="1.1" viewBox="0 0 53.5 40.2">
  <defs>
    <style>
      .cls-1 {
        fill: #5429a2;
      }
    </style>
  </defs>
  <!-- Generator: Adobe Illustrator 28.7.6, SVG Export Plug-In . SVG Version: 1.2.0 Build 188)  -->
  <g>
    <g id="layout">
      <path class="cls-1" d="M.2,12.1c.6.4,1.1.8,1.5,1.1,6.8,5.1,13.7,10.2,20.5,15.3,3.2,2.4,5.9,2.4,9.2,0,6.6-5,13.3-9.9,19.9-14.9.6-.5,1.3-.9,2.1-1.6,0,.6.1,1,.1,1.4,0,6.5,0,13,0,19.6,0,4.5-2.8,7.3-7.3,7.3-13,0-26,0-39,0C3.1,40.2.1,37.5,0,33.5c0-6.9,0-13.8,0-20.7s0-.3.1-.7h0Z"/>
      <path class="cls-1" d="M26.8,0c7.1,0,14.2,0,21.3,0,3.7,0,6.2,3,5.2,6.2-.3,1.1-1.2,2.2-2.2,3-7.2,5.6-14.6,11-21.9,16.5-1.9,1.4-3,1.4-4.9,0-7.3-5.5-14.6-11-21.9-16.5C.3,7.7-.4,5.6.3,3.4,1.1,1.3,2.9,0,5.4,0c7.1,0,14.3,0,21.4,0Z"/>
    </g>
  </g>
</svg>