<?xml version="1.0" encoding="UTF-8"?>
<svg id="_圖層_1" data-name="圖層_1" xmlns="http://www.w3.org/2000/svg" version="1.1" viewBox="0 0 53.5 40.2">
  <!-- Generator: Adobe Illustrator 29.8.6, SVG Export Plug-In . SVG Version: 2.1.1 Build 1)  -->
  <defs>
    <style>
      .st0 {
        fill: #fff;
      }
    </style>
  </defs>
  <g id="layout">
    <path class="st0" d="M.2,12.1c.6.4,1.1.8,1.5,1.1,6.8,5.1,13.7,10.2,20.5,15.3,3.2,2.4,5.9,2.4,9.2,0,6.6-5,13.3-9.9,19.9-14.9.6-.5,1.3-.9,2.1-1.6,0,.6,0,1,0,1.4v19.6c0,4.5-2.8,7.3-7.3,7.3H7.2c-4.1,0-7.1-2.8-7.2-6.8V12.8c0-6.9,0-.3.1-.7h.1Z"/>
    <path class="st0" d="M26.8,0h21.3c3.7,0,6.2,3,5.2,6.2-.3,1.1-1.2,2.2-2.2,3-7.2,5.6-14.6,11-21.9,16.5-1.9,1.4-3,1.4-4.9,0-7.3-5.5-14.6-11-21.9-16.5C.3,7.7-.4,5.6.3,3.4,1.1,1.3,2.9,0,5.4,0h21.4Z"/>
  </g>
</svg>