<?xml version="1.0" encoding="UTF-8"?>
<svg xmlns="http://www.w3.org/2000/svg" version="1.1" viewBox="0 0 38.6 41.5">
  <defs>
    <style>
      .cls-1 {
        fill: #2da1ff;
      }
    </style>
  </defs>
  <!-- Generator: Adobe Illustrator 28.7.5, SVG Export Plug-In . SVG Version: 1.2.0 Build 176)  -->
  <g>
    <g id="layout">
      <path class="cls-1" d="M9,5.5v-2.9c0-1.6.8-2.6,2-2.6,1.2,0,1.9,1,2,2.5,0,1,0,1.9,0,2.9h12.6c0-1.1,0-2,0-3,0-1.5.8-2.4,2-2.4,1.2,0,2,.9,2,2.4,0,1,0,1.9,0,3.1h2.9c3.8,0,6.1,2.3,6.1,6.1,0,8.8,0,15,0,23.9,0,3.7-2.3,6-6,6.1H6C2.3,41.5,0,39.2,0,35.5c0-8.8,0-15.1,0-23.9s2.3-6.1,6.1-6.1c.9,0,1.8,0,2.9,0ZM23.4,28.4v-5.5h-8.3v5.5s8.3,0,8.3,0ZM15.1,18.7h8.3v-4.8h-8.3v4.8ZM23.4,37.4v-4.8h-8.3v4.8h8.3ZM11,23h-7v5.5h6.9v-5.5h0ZM34.5,23h-7v5.5h7v-5.5ZM4.1,13.9v4.8h6.9v-4.8s-6.9,0-6.9,0ZM27.6,13.9v4.8h6.9v-4.8s-6.9,0-6.9,0ZM11,37.5v-4.8h-7c0,1.2,0,2.3,0,3.4,0,.8.4,1.3,1.3,1.4,1.9,0,3.7,0,5.7,0h0ZM27.5,37.5c2,0,3.8,0,5.6,0,.5,0,1.2-.7,1.3-1.1.2-1.2,0-2.4,0-3.6h-7v4.8h0Z"/>
    </g>
  </g>
</svg>