<?xml version="1.0" encoding="UTF-8"?>
<svg xmlns="http://www.w3.org/2000/svg" version="1.1" xmlns:xlink="http://www.w3.org/1999/xlink" viewBox="0 0 35 46.7">
  <defs>
    <style>
      .cls-1 {
        fill: url(#_未命名漸層_9);
      }

      .cls-2 {
        fill: url(#_未命名漸層_9-2);
      }
    </style>
    <linearGradient id="_未命名漸層_9" data-name="未命名漸層 9" x1="17.5" y1="46.7" x2="17.5" y2="0" gradientUnits="userSpaceOnUse">
      <stop offset="0" stop-color="#ff41b3"/>
      <stop offset="1" stop-color="#2da1ff"/>
    </linearGradient>
    <linearGradient id="_未命名漸層_9-2" data-name="未命名漸層 9" x1="17.5" y1="38" x2="17.5" y2="19.1" xlink:href="#_未命名漸層_9"/>
  </defs>
  <!-- Generator: Adobe Illustrator 28.7.5, SVG Export Plug-In . SVG Version: 1.2.0 Build 176)  -->
  <g>
    <g id="layout">
      <path class="cls-1" d="M0,23.4V6.2C0,2.5,2.5,0,6.2,0c4.8,0,9.7,0,14.5,0,1.7,0,3.1.5,4.3,1.8,2.7,2.8,5.5,5.5,8.2,8.2,1.2,1.2,1.8,2.6,1.8,4.2,0,8.8,0,17.6,0,26.5,0,3.8-2.5,6.1-6.2,6.1H6.2C2.5,46.7,0,44.3,0,40.6v-17.2h0ZM4.2,23.4v17.2c0,1.4.5,1.9,1.9,1.9h22.6c1.4,0,1.9-.5,1.9-1.8,0-8.4,0-16.8,0-25.2,0-.8-.3-1-1-1-2.1,0-4.2,0-6.3,0-1.8,0-2.8-1.1-2.8-2.9s0-4.1,0-6.2c0-.9-.2-1.2-1.2-1.2-4.3,0-8.6,0-12.9,0s-2.2.4-2.2,2.2v16.9h0Z"/>
      <path class="cls-2" d="M15.4,30.3v-1c0-2.6,0-5.3,0-7.9,0-1.8,1.5-2.8,3-2,.8.4,1.1,1,1.1,1.9v8.1c0,.3,0,.7,0,1.3.6-.6,1-.9,1.4-1.3.7-.6,1.3-1.3,2-1.8.8-.6,1.8-.4,2.5.3.6.6.8,1.6.4,2.4-.2.4-.5.8-.8,1.1-1.9,1.9-3.7,3.7-5.6,5.6-1.5,1.5-2.6,1.5-4.1,0-1.9-1.8-3.7-3.7-5.6-5.6-.2-.2-.5-.5-.7-.8-.6-.9-.4-2.1.3-2.8.8-.8,1.9-.8,2.8,0,.7.6,1.3,1.3,2,2,.2.2.5.5.8.7,0,0,.2,0,.3-.1h0Z"/>
    </g>
  </g>
</svg>