<?xml version="1.0" encoding="UTF-8"?>
<svg xmlns="http://www.w3.org/2000/svg" version="1.1" xmlns:xlink="http://www.w3.org/1999/xlink" viewBox="0 0 48.4 48.4">
  <defs>
    <style>
      .cls-1 {
        fill: url(#_未命名漸層_7);
      }

      .cls-2 {
        fill: #fcfbfa;
      }
    </style>
    <linearGradient id="_未命名漸層_7" data-name="未命名漸層 7" x1="7.1" y1="7.1" x2="41.3" y2="41.3" gradientUnits="userSpaceOnUse">
      <stop offset="0" stop-color="#6db5ef"/>
      <stop offset="1" stop-color="#9671d9"/>
    </linearGradient>
  </defs>
  <!-- Generator: Adobe Illustrator 28.7.6, SVG Export Plug-In . SVG Version: 1.2.0 Build 188)  -->
  <g>
    <g id="_圖層_1" data-name="圖層_1">
      <g id="_圖層_1-2" data-name="_圖層_1">
        <path class="cls-1" d="M24.2,48.4c13.4,0,24.2-10.8,24.2-24.2S37.6,0,24.2,0,0,10.8,0,24.2s10.8,24.2,24.2,24.2Z"/>
        <path class="cls-2" d="M32.6,28.2c-.3,0-.6,0-.8-.4l-8.5-8.8-8.5,8.8c-.5.5-1.2.5-1.7,0s-.5-1.2,0-1.7l10.2-10.5,10.2,10.5c.5.5.4,1.2,0,1.7-.4.2-.7.4-1,.4h0Z"/>
      </g>
    </g>
  </g>
</svg>