<?xml version="1.0" encoding="UTF-8"?>
<svg id="OBJECTS" xmlns="http://www.w3.org/2000/svg" xmlns:xlink="http://www.w3.org/1999/xlink" viewBox="0 0 92.02 92.02">
  <defs>
    <style>
      .cls-1 {
        fill: url(#radial-gradient);
      }

      .cls-2 {
        fill: url(#radial-gradient-2);
      }

      .cls-3 {
        fill: url(#_未命名漸層_4);
      }
    </style>
    <radialGradient id="_未命名漸層_4" data-name="未命名漸層 4" cx="7629.31" cy="-291.23" fx="7629.31" fy="-291.23" r="36.37" gradientTransform="translate(-294.62 -488.71) rotate(88.06) scale(.07 1.11)" gradientUnits="userSpaceOnUse">
      <stop offset="0" stop-color="#fff"/>
      <stop offset=".06" stop-color="#fcfffb" stop-opacity=".82"/>
      <stop offset=".13" stop-color="#f9fff8" stop-opacity=".63"/>
      <stop offset=".2" stop-color="#f7fff4" stop-opacity=".47"/>
      <stop offset=".27" stop-color="#f5fff2" stop-opacity=".33"/>
      <stop offset=".35" stop-color="#f3fff0" stop-opacity=".23"/>
      <stop offset=".42" stop-color="#f2ffef" stop-opacity=".16"/>
      <stop offset=".5" stop-color="#f2ffee" stop-opacity=".11"/>
      <stop offset=".58" stop-color="#f2ffee" stop-opacity=".1"/>
      <stop offset="1" stop-color="#efffe8" stop-opacity="0"/>
    </radialGradient>
    <radialGradient id="radial-gradient" cx="12229.04" cy="-293.82" fx="12229.04" fy="-293.82" r="36.37" gradientTransform="translate(909.59 -308.64) rotate(178.06) scale(.07 1.11)" gradientUnits="userSpaceOnUse">
      <stop offset="0" stop-color="#fff"/>
      <stop offset=".06" stop-color="#fcfffb" stop-opacity=".82"/>
      <stop offset=".13" stop-color="#f9fff8" stop-opacity=".63"/>
      <stop offset=".2" stop-color="#f7fff4" stop-opacity=".47"/>
      <stop offset=".27" stop-color="#f5fff2" stop-opacity=".33"/>
      <stop offset=".35" stop-color="#f3fff0" stop-opacity=".23"/>
      <stop offset=".42" stop-color="#f2ffef" stop-opacity=".16"/>
      <stop offset=".5" stop-color="#f2ffee" stop-opacity=".11"/>
      <stop offset=".58" stop-color="#f2ffee" stop-opacity=".1"/>
      <stop offset="1" stop-color="#efffe8" stop-opacity="0"/>
    </radialGradient>
    <radialGradient id="radial-gradient-2" cx="91.03" cy="-517.06" fx="91.03" fy="-517.06" r="7.42" gradientTransform="translate(743.14 983.95) rotate(-46.94) scale(2.3 2.22)" xlink:href="#radial-gradient"/>
  </defs>
  <g>
    <path class="cls-3" d="M46.1,48.66C20.69,49.52.05,49.03,0,47.57c-.05-1.47,20.51-3.35,45.92-4.21,25.41-.86,46.05-.37,46.1,1.09.05,1.47-20.51,3.35-45.92,4.21Z"/>
    <path class="cls-1" d="M43.36,46.1C42.49,20.69,42.98.05,44.45,0c1.47-.05,3.35,20.51,4.21,45.92.86,25.41.37,46.05-1.09,46.1-1.47.05-3.35-20.51-4.21-45.92Z"/>
  </g>
  <path class="cls-2" d="M57.66,33.54c6.66,6.22,6.84,16.84.4,23.73s-17.04,7.42-23.7,1.2-6.84-16.84-.4-23.73c6.43-6.88,17.04-7.42,23.7-1.2Z"/>
</svg>