<?xml version="1.0" encoding="UTF-8"?>
<svg id="_圖層_1_拷貝" xmlns="http://www.w3.org/2000/svg" version="1.1" xmlns:xlink="http://www.w3.org/1999/xlink" viewBox="0 0 503.4 41">
  <!-- Generator: Adobe Illustrator 29.8.6, SVG Export Plug-In . SVG Version: 2.1.1 Build 1)  -->
  <defs>
    <style>
      .st0 {
        fill: #fff;
      }

      .st1 {
        filter: url(#drop-shadow-1);
      }
    </style>
    <filter id="drop-shadow-1" x="0" y="0" width="503.5" height="41" filterUnits="userSpaceOnUse">
      <feOffset dx="0" dy="0"/>
      <feGaussianBlur result="blur" stdDeviation="5.9"/>
      <feFlood flood-color="#231815" flood-opacity=".8"/>
      <feComposite in2="blur" operator="in"/>
      <feComposite in="SourceGraphic"/>
    </filter>
  </defs>
  <g class="st1">
    <g>
      <path class="st0" d="M.2,33.5c4.9-4.4,7.9-7.8,7.9-10.6s-1-3-2.7-3-2.4.9-3.3,1.9L0,19.8c1.7-1.8,3.3-2.8,5.8-2.8s5.7,2.2,5.7,5.6-2.7,6.8-6.1,10.1c.9,0,2.1-.2,3-.2h4v3H.2v-2.1Z"/>
      <path class="st0" d="M16.5,26.4c0-6.3,2.5-9.4,6.2-9.4s6.1,3.1,6.1,9.4-2.5,9.5-6.1,9.5-6.2-3.2-6.2-9.5ZM25.4,26.4c0-5.1-1.2-6.6-2.7-6.6s-2.8,1.5-2.8,6.6,1.2,6.7,2.8,6.7,2.7-1.6,2.7-6.7Z"/>
      <path class="st0" d="M32.8,33.5c4.9-4.4,7.9-7.8,7.9-10.6s-1-3-2.7-3-2.4.9-3.3,1.9l-2-2c1.7-1.8,3.3-2.8,5.8-2.8s5.7,2.2,5.7,5.6-2.7,6.8-6.1,10.1c.9,0,2.1-.2,3-.2h4v3h-12.2v-2.1Z"/>
      <path class="st0" d="M59.4,21.2c-.6-.7-1.7-1.3-2.8-1.3-2.1,0-3.8,1.6-4,6.1,1-1.2,2.6-1.9,3.7-1.9,3,0,5.2,1.8,5.2,5.7s-2.6,6.1-5.7,6.1-6.5-2.8-6.5-9.2,3.4-9.7,7-9.7,3.8.9,4.9,2.1l-1.9,2.2ZM58.2,29.8c0-2.2-1-3.2-2.6-3.2s-2.1.5-3,1.9c.3,3.3,1.6,4.6,3.1,4.6s2.5-1.1,2.5-3.3Z"/>
      <path class="st0" d="M70.2,18.2c-1.4,1.8-3.1,3.2-4.8,4.1l-.3-.2c1.5-1.8,2.9-4.6,3.7-7.6l3.7,1.2c0,.3-.4.5-1,.5-.2.5-.5.9-.8,1.3h2.9l1.2-1.7s1.4,1.2,2.3,2c0,.3-.3.4-.6.4h-6.3ZM85.1,28.1l2.6,2.1c-.2.2-.5.3-1,.4-.2,2.8-.8,4.4-1.9,5-.7.4-1.6.7-2.9.7,0-.8,0-1.5-.5-1.9-.4-.4-1.1-.7-2-.9v-.3c.9,0,2.3.1,2.8.1s.5,0,.7-.2c.3-.3.7-1.3.9-3.1h-5.6v6.8c0,.2-.9.7-2.4.7h-.5v-5.3c-2.4,2.1-5.8,3.7-9.8,4.7l-.2-.3c3.6-1.5,6.5-3.9,8.3-6.6h-3.3l-1,1.2-2.6-1.5c.2-.2.5-.4.9-.6.3-1.4.7-3.6.8-4.9l3.1,1.5h3.7v-3h-8l-.2-.7h15.4l1.3-1.4,2.7,2c-.1.2-.4.4-.9.5v3.6c0,.2-1.4.8-2.4.8h-.5v-1.2h-4.5v3h5.4l1.4-1.4ZM75.3,29.5v-3h-4.4c-.2.9-.4,2.1-.6,3h5ZM71.2,18.6c5.1.5,2.9,4.2.9,2.7,0-.9-.6-1.9-1.2-2.5h.2ZM85.8,15.7s1.5,1.2,2.5,2.1c0,.3-.3.4-.7.4h-7.8c-1.2,1.4-2.6,2.5-4.1,3.2l-.3-.2c1.2-1.5,2.4-4.1,3.1-6.7l3.6,1.4c0,.3-.4.5-1,.5-.2.4-.5.8-.8,1.2h4l1.4-1.8ZM78.3,25.9h4.5v-3h-4.5v3ZM80.6,18.6c5.3.2,3.1,4.1,1,2.5,0-.8-.6-1.8-1.2-2.4h.2Z"/>
      <path class="st0" d="M112.2,33.8c.7.3.9.6.9,1.2,0,1.2-1.1,1.7-4.3,1.7h-1.9c-2.2,0-2.7-.6-2.7-2.5v-12.5h-4.3c-.3,6.8-1.8,12.2-10,16l-.2-.3c5.8-4.3,7-9.4,7.2-15.7h-5.9l-.2-.7h6.2c0-2,0-4,0-6.2l4,.4c0,.4-.3.6-.9.7,0,1.8,0,3.5,0,5.1h3.9l1.4-1.6,2.7,2.2c-.2.2-.4.4-1,.4v11.4c0,.4.1.5.7.5h1.3c.5,0,1,0,1.2,0,.2,0,.3,0,.5-.3.3-.5.7-2.1,1.1-3.7h.3v3.9Z"/>
      <path class="st0" d="M119.4,24.1c0,4.5-.2,10-5,13.7l-.3-.2c2.2-3.9,2.4-8.9,2.4-13.5v-8.6l3.3,1.2h12.4l1.3-1.5,2.9,2.1c-.1.2-.5.4-1,.5v4.1c0,.1-1.5.6-2.4.6h-.5v-1.4h-13.1v2.9ZM136.9,24.2c0,.3-.2.5-.8.6v11.7c0,.3-1.3.9-2.4.9h-.5v-1.7h-10.2l-.9,1.2-2.9-1.5c.2-.2.6-.5.9-.7v-11l3.6.3c0,.4-.3.6-.9.7v10.2h10.4v-2.2c-.1,0-.3.1-.5.1h-9.5l-.2-.7h3.5v-4.7h-2.9l-.2-.7h3.1v-4.9l3.2.3c0,.3-.2.5-.7.6v4h.5l1.1-1.6s1.3,1.1,2,1.9c0,.3-.3.4-.6.4h-3v4.7h.8l1.3-1.8s1.3,1.1,2.1,2v-8.6l3.7.3ZM119.4,17.4v3.1h13.1v-3.1h-13.1Z"/>
    </g>
    <g>
      <path class="st0" d="M273.6,20.2c10,2.6,8.3,9.2,5.1,7.3-.3-.8-.8-1.7-1.4-2.6-3.6.7-8.9,1.6-15.3,2.5-.2.3-.5.4-.7.5l-1-3.3s.7-.1,1-.3c2.5-1.4,6.2-5.5,7.4-7.8l4,1.6c0,.3-.4.5-1,.4-1.9,2-5.5,4.5-8.6,6.1,3.3,0,8.4-.2,13.8-.4-1.1-1.5-2.3-2.8-3.5-3.9l.2-.2ZM276.5,27.9l3,2.3c-.2.2-.5.5-1.1.6v7.9c0,.1-1.5.7-2.6.7h-.5v-2.1h-9.4v1.3c0,.3-1.4,1-2.6,1h-.4v-11.3l3.2,1.3h8.9l1.5-1.6ZM275.3,36.6v-6.4h-9.4v6.4h9.4Z"/>
      <path class="st0" d="M283.5,22.5c6,1.2,3.6,5.5,1.3,3.7,0-1.3-.9-2.6-1.6-3.5l.2-.2ZM289,22.9c-.5,2.5-1.5,7-1.7,8.1-.1.7-.2,1.5-.2,2.1,0,1.3,1,2.3.9,4.5,0,1.2-.8,2-1.8,2s-1-.4-1.2-1.3c.4-2.6.3-4.9-.2-5.3-.3-.2-.7-.3-1.2-.4v-.5h1c.3,0,.4,0,.7-.5q.4-.8,3.3-8.8h.4ZM284.9,16.7c6.3,1.2,3.8,5.7,1.5,3.8-.1-1.3-.9-2.7-1.6-3.7l.2-.2ZM293.1,22.5c3.3,1.8,1.6,4.2.4,3,0-.2,0-.5,0-.7-.9.4-2.1.8-3.3,1.3-.1.2-.3.3-.5.4l-.9-2s.4,0,.6-.2c.6-.5,1.3-1.3,2-2.3-.4.1-.8.3-1.1.4-.2.3-.3.4-.5.5l-1-2.3s.4,0,.6-.2c.9-.7,1.9-2.9,2.3-4l2.6,1.2c0,.2-.4.4-.9.3-.8.9-2,2.1-3,2.9.5,0,1.2,0,1.9,0,.4-.6.7-1.2.9-1.6l2.3,1.5c-.1.2-.4.4-.9.3-.9,1-2.3,2.4-3.7,3.4.8,0,1.7-.1,2.7-.2-.1-.5-.3-1.1-.5-1.5h.3ZM306.7,35.4c-.2.2-.5.3-1,.4-.4,1.8-.9,2.9-1.9,3.4-.7.4-1.7.5-3,.5,0-.7,0-1.2-.5-1.6-.4-.4-1.3-.7-2.3-.9v-.3c1.1,0,2.8.2,3.3.2s.6,0,.8-.1c.3-.2.6-.8.8-1.7h-9.7l-1,1.1-2.5-1.5c.2-.2.6-.4,1-.6.3-1,.7-2.6.9-3.4l3,1.4h7.8v-1.7h-11.7l-.2-.7c-.8.8-2.2,0-1.2-1.3.5-.3.8-1.1.9-2.1h.4c.6,1.8.4,2.9,0,3.4h11.7l.7-.8c0,0-.1-.1-.2-.2.2-.9.1-2,0-2.8h.3c1.5,1.2,1.5,2.4,1,3l2,1.5c-.1.2-.4.3-.9.4v2c0,.1-1.4.6-2.3.6h-.5v-.5h-8.5c-.2.5-.4,1.1-.5,1.6h9.6l1.4-1.3,2.5,2ZM291.7,26.2c2.6,2.2.7,4.4-.3,3,.2-1,.1-2.2,0-3h.3ZM293.1,25.7c3.1,1.8,1.5,4.1.4,3,0-.9-.3-2.1-.7-2.8h.3ZM294.3,20l-.2-.7h4l.9-1.2s1,.8,1.7,1.5c0,.3-.3.4-.6.4h-5.8ZM299.8,20.7s.4,0,.6-.2c1-.7,2.1-2.9,2.5-4l2.5,1.2c0,.2-.4.4-.9.3-.8.9-2,2.1-3.1,2.9.6,0,1.3,0,2.1,0,.4-.6.7-1.1.9-1.5l2.3,1.5c-.1.2-.4.4-.9.3-.9,1-2.4,2.4-3.9,3.4.8,0,1.8-.1,2.9-.2-.2-.5-.4-1-.6-1.4h.3c3.6,1.5,2,4.1.7,2.9,0-.3,0-.6-.1-.9-.9.3-2.3.9-3.6,1.3-.1.2-.3.3-.4.4l-.5-1.1c0,.1-.3.2-.5.3v3c0,.2-.8.5-1.4.5h-.3v-.7h-1.4v.4c0,.1-.5.5-1.3.5h-.2v-5.3l1.8.8h1l.8-.8,1.5,1.2-.4-.9s.4,0,.6-.2c.7-.5,1.5-1.4,2.2-2.4-.5.2-.9.4-1.4.5-.1.3-.3.5-.5.5l-.6-1.3c0,.2-.3.3-.6.3h-4.5l-.2-.7h2.9l.9-1s.9.7,1.5,1.3l-.3-.8ZM298.6,22s.9.8,1.5,1.4c0,.3-.3.4-.6.4h-4.5l-.2-.7h2.9l.9-1ZM295.5,16.4c4.1.7,2.3,3.7.7,2.5,0-.8-.5-1.8-1-2.3l.3-.2ZM298.2,27.8v-2.1h-1.4v2.1h1.4ZM301.5,26.2c1.7,4.8-2.9,3.9-1.3,1.8.5-.3.8-1,.9-1.8h.3ZM304.4,25.6c3.1,1.8,1.5,4.1.4,3,0-.9-.4-2.1-.7-2.9h.3Z"/>
      <path class="st0" d="M320.9,24.7c.9,4.6,3.7,9.1,10.6,11.9v.3c-1.5.3-2.4,1.2-2.7,2.9-5.7-3.5-7.6-9.5-8.2-14.4-.7,5.9-3.2,10.9-12.1,14.4l-.2-.4c6.8-4.1,8.8-9,9.3-14.6h-8.9l-.2-.7h9.1c.2-2.3.1-4.8.1-7.3l4.1.4c0,.4-.3.6-.9.7,0,2.1,0,4.2-.2,6.2h5.5l1.8-2.2s2,1.5,3.2,2.6c0,.3-.3.4-.7.4h-9.7Z"/>
      <path class="st0" d="M346.2,27.1c2,3.6,6,6.3,9.8,7.5v.3c-1.2.2-2.1,1.2-2.5,2.6-3.7-2.1-6.3-5.5-7.8-10.4h0v11.5c0,.3-1.3,1-2.4,1h-.6v-9.3c-2.3,3.1-5.7,5.8-9.9,7.6l-.2-.3c3.8-2.6,6.8-6.6,8.4-10.5h-7.9l-.2-.7h9.8v-4.5h-7.6l-.2-.7h7.7v-4.7l3.9.4c0,.3-.2.6-.9.7v3.6h3.5l1.6-2.1s1.9,1.4,3,2.4c0,.3-.3.4-.7.4h-7.5v4.5h5.2l1.7-2.1s1.9,1.4,3.1,2.4c0,.3-.3.4-.7.4h-8.8Z"/>
      <path class="st0" d="M377.1,23c0,.3-.4.5-.9.5-.2.7-.5,1.3-.8,1.9,5.7,1.6,3.7,6,1.3,4.3-.3-1.2-1-2.4-1.8-3.4-.8,1.5-1.9,2.6-3.1,3.4,2.1,2.8,5.4,4.8,8.8,5.7v.3c-1.2.2-2,1.2-2.4,2.5-3.8-1.9-6.3-5-7.9-9.7v10c0,.3-1.3,1.1-2.4,1.1h-.6v-7.4c-2.5,2.5-6,4.8-9.8,6.2l-.2-.3c4.3-2.3,8.2-6.7,10-11.3v-5.3h-9.4l-.2-.7h9.6v-4.1l3.8.4c0,.3-.2.6-.9.7v3h5.1l1.7-2.1s1.9,1.4,3,2.4c0,.3-.3.4-.7.4h-9.2v6c.3.7.7,1.3,1.1,1.9,1.1-1.8,1.8-4.4,2-7.1l3.7.9ZM365.6,23.2c0,.3-.4.5-.9.5-.2.6-.5,1.3-.8,1.8,4.3,1.6,2,5,0,3.3,0-.7-.3-1.5-.7-2.2-1.2,1.9-2.7,3.4-4.5,4.4l-.3-.2c1.6-2,3-5.2,3.6-8.6l3.5,1Z"/>
      <path class="st0" d="M404.9,18.9c-.2.2-.5.4-1,.5v19.2c0,.2-1.3.9-2.3.9h-.4v-1.8h-15.3v.9c0,.3-1.1,1-2.2,1h-.4v-22.6l2.9,1.2h14.9l1.3-1.5,2.7,2.1ZM401.2,37v-18.1h-15.3v18.1h15.3ZM393.5,31.1c-1.1.7-2.8,1.7-5.2,3-.1.3-.3.5-.6.6l-1.4-2.8c1.3-.1,4.3-.6,7.2-1.1v.3ZM400.8,25.4c-.1.3-.4.5-1,.4-.7,2-1.6,3.6-2.7,5,.4.7.8,1.4,1.3,1.9.3.3.4.3.6,0,.3-.5.7-1.6,1-2.4h.3s-.4,3.4-.4,3.4c.7,1.1.8,1.7.4,2.1-.9.9-2.5,0-3.2-.8-.6-.7-1.2-1.5-1.6-2.3-1.6,1.5-3.5,2.7-5.6,3.5l-.2-.3c1.9-1.2,3.6-2.8,5.1-4.9-.6-1.6-1-3.5-1.3-5.4,0,.1-.4.3-.7.3v3.6c0,.2-1,.7-1.7.7h-.3v-.8h-1.5v.6c0,.1-.9.6-1.7.6h-.3v-6.5l2.1.9h1.2l.9-1,1.9,1.5c0-.7-.1-1.5-.2-2.3h-6.7l-.2-.7h6.8c0-1.1,0-2.2,0-3.3l3.3.6c0,.3-.3.6-.9.6,0,.7,0,1.4,0,2.1h1.9l.5-.7h0c-.2-.9-.9-1.8-1.5-2.4l.2-.2c3.3.1,3.5,1.8,2.8,2.5.4.3.9.8,1.3,1.1,0,.3-.3.4-.7.4h-4.5c0,1.8.3,3.5.7,5.1.6-1.3,1.1-2.7,1.5-4.2l3.1,1.3ZM390.7,28.8v-3h-1.5v3h1.5Z"/>
      <path class="st0" d="M416,19.4c-.2.2-.5.3-1.1.3-.8,1.5-2.3,4.1-3.5,5.7,2.4,1.7,3.5,4,3.5,6.1,0,2.4-.8,3.8-3.5,3.9,0-.8,0-1.8-.3-2.1-.2-.2-.5-.5-1-.6v6.2c0,.2-.8.8-2.1.8h-.4v-22.4l2.9,1.1h1.4l1.4-1.4,2.7,2.5ZM411.3,32.3c.2,0,.4,0,.5-.1.3-.2.5-.6.5-1.4,0-1.7-.4-3.6-1.6-5.2.4-1.6,1-4.5,1.3-6.5h-1.9v13.3h1.2ZM429.5,19.9c-.2.2-.4.3-1,.3-.8,1-2.2,2.2-3.3,3,1.2,1.2,2.8,2.1,4.5,2.7v.3c-1,.2-1.6,1-1.9,2.2-2.6-1.7-4.2-4.2-4.9-8.1-.1,0-.3,0-.4,0-1.1,3.6-3.5,7-7.8,9l-.2-.3c2-1.4,3.5-3.4,4.5-5.5-.3,0-.6,0-.9-.2-.1-.6-.5-1.3-.9-1.7-.8,1.1-1.8,2-3,2.7l-.3-.2c1.5-1.8,2.8-4.8,3.2-7.5l3.2.9c-.1.2-.3.3-.9.2-.2.5-.5,1.1-.8,1.6h1.5l1.3-1.2,2.2,1.8s0,0-.1.1c.4,1.1.9,2,1.6,2.7.4-.9.8-2.2,1.1-3.1h-2.8l-.2-.7h2.9l1.3-1.3,2.3,2.2ZM418,23.9c-.4.5-1.1,1.3-2,2.1,0,.3-.2.5-.5.6l-1.2-1.9c.9-.1,2.3-.6,3.5-1.1v.3ZM414.5,38.3c1.2-1.6,2.3-4.1,2.7-5.8l3.1,1.5c-.1.2-.4.3-.8.2-.9,1.5-2.9,3.3-4.8,4.4l-.2-.3ZM426.5,29.2s1.6,1.3,2.6,2.2c0,.3-.3.4-.7.4h-5.2v7.2c0,.1-.8.6-2.2.6h-.5v-7.8h-5l-.2-.7h9.8l1.4-1.9ZM418,20.1c-.2.3-.4.6-.6,1,1.2.2,1.8.6,2.1,1.1.2-.7.4-1.3.6-2h-2ZM423.9,25.7s1.5,1.2,2.3,2c0,.3-.3.4-.7.4h-7.5l-.2-.7h4.7l1.3-1.7ZM424.1,33c7,1.5,5.1,6.5,2.6,4.8-.4-1.6-1.7-3.5-2.8-4.7l.2-.2Z"/>
      <path class="st0" d="M451,17.5s2,1.4,3.1,2.4c0,.3-.3.4-.7.4h-21.9l-.2-.7h10.5c-.3-1.1-1.2-2.3-2.1-3h.2c4.7-.4,5.1,2.1,4,3h5.4l1.7-2.1ZM451.1,27.2l2.9,2.1c-.1.2-.5.4-1,.5v6.7c0,1.8-.4,2.9-3.6,3.1,0-.8-.2-1.5-.5-1.9-.3-.4-.8-.7-2-.9v-.3s2.2.1,2.7.1.5-.2.5-.5v-6.9h-14.4v9.4c0,.3-1.3.9-2.4.9h-.4v-12.2l3.1,1.2h13.9l1.3-1.5ZM446.2,27.7v-1.1h-6.8v.5c0,.2-1.3.8-2.5.8h-.4v-6.8l3,1.2h6.4l1.3-1.5,2.8,2.1c-.1.2-.5.4-1,.5v3.6c0,.1-1.5.6-2.4.6h-.5ZM447.3,36c0,.2-1.3.7-2.2.7h-.4v-1.2h-3.9v.8c0,.2-1.2.8-2.3.8h-.4v-7l2.7,1.1h3.5l1.2-1.3,2.6,1.9c-.1.2-.4.4-.9.5v3.7ZM446.2,25.9v-2.9h-6.8v2.9h6.8ZM444.6,34.9v-2.9h-3.9v2.9h3.9Z"/>
      <path class="st0" d="M477.3,20.1c-.2.2-.4.3-1,.4-.7,1.3-1.6,2.5-2.8,3.5,1.7.6,3.6,1,5.5,1.2v.3c-1,.3-1.6,1.1-1.9,2.3-2-.6-3.8-1.4-5.4-2.4-2,1.3-4.4,2.3-7.3,2.9v7.6c0,.2-.9.7-1.7.7h-.4v-1.4h-3.8l-.7.8-2.3-1.1c.1-.2.4-.4.7-.6v-13.4l2.7.3c0,.3-.2.5-.7.5v12.7h1v-17.6l2.8.3c0,.3-.2.5-.8.6v16.7h1v-13.6l2.8.3c0,.3-.2.5-.7.6v6.1c2.3-.9,4.3-2.2,5.9-3.6-.8-.7-1.4-1.5-1.9-2.5-.9,1.1-2,2-3.2,2.7l-.2-.2c1.5-1.8,2.7-5,3.2-7.7l3.8.6c0,.3-.2.4-.9.4-.3.6-.6,1.2-.9,1.8h3.3l1.5-1.4,2.5,2.1ZM476.3,33.2s1.6,1.3,2.6,2.2c0,.3-.3.4-.7.4h-5.7v3.1c0,.2-1.2.7-2.2.7h-.5v-3.8h-4.8l-.2-.7h5v-2.4h-3.8l-.2-.7h4v-2.3h-4.2l-.2-.7h4.4v-2.2l3.5.3c0,.3-.2.5-.8.6v1.2h1.2l1.3-1.7s1.5,1.2,2.4,2c0,.3-.3.4-.7.4h-4.3v2.3h1.1l1.3-1.7s1.5,1.2,2.3,2c0,.3-.3.4-.7.4h-4.1v2.4h2.3l1.4-1.8ZM469.6,20.1c-.3.4-.5.7-.8,1.1.7.8,1.6,1.4,2.6,1.9.8-.9,1.5-2,1.9-3h-3.7Z"/>
      <path class="st0" d="M494.3,17.5c0,.3-.4.4-1.2.5,2.3,2.1,6.8,3.3,10.3,3.9v.3c-1.2.4-2,1.6-2.1,2.8-.6-.2-1.2-.5-1.8-.8l1.2.9c0,.1-.3.3-.6.3v4.6c0,.2-1.3.7-2.2.7h-.4v-.7h-11.2v.2c0,0-.1.2-.3.4l2.5,1h6.8l1.3-1.3,2.5,1.9c0,.1-.3.3-.7.4v6c0,.2-1.4.9-2.4.9h-.5v-1.3h-7.2v.5c0,.3-1.3.9-2.5.9h-.4v-8.7c-.3.1-.8.2-1.3.2h-.4v-6.7c-1,.4-2.1.8-3.1,1.1v-.3c4-2.1,8.4-6.2,9.5-9l4.3,1.1ZM498.3,23.6c-2.3-1.4-4.4-3.2-5.5-5.3-1.6,2-4.5,4.1-7.8,5.7l1.6.6h10.7l1-1ZM486.2,29.4h4.4v-4.1h-4.4v4.1ZM487.1,25.5c4.5,1.6,2.2,4.8.6,3.2,0-1-.4-2.3-.8-3h.3ZM493.7,21s1.4,1.1,2.2,1.8c0,.3-.3.4-.6.4h-7l-.2-.7h4.4l1.2-1.5ZM488.2,32.4v2.2h7.2v-2.2h-7.2ZM495.4,37.6v-2.2h-7.2v2.2h7.2ZM497.5,25.3h-4.4v4.1h.7c.4-1.2.8-2.7,1.1-3.9l2.7.9v-1.1ZM497.5,29.4v-2.6c-.1,0-.4.1-.7,0-.6.8-1.5,1.7-2.4,2.5h3Z"/>
    </g>
    <g>
      <g>
        <g>
          <path class="st0" d="M237.3,22.7c.5-.2.7-.4.7-.6s-.3-.4-.8-.4l-2.9-.3v14.3c0,0,3,.1,3,.1v-13.1Z"/>
          <path class="st0" d="M233.6,29.1h0s-2.1-2.3-2.1-2.3l-1.5,1.7v-6.3s3.3,0,3.3,0h0c.4,0,1,0,0-1h0s-2-1.9-2-1.9l-1.4,1.5h-7.1l.3,1.5h3v6.5s-3.7,0-3.7,0l.3,1.3h3.4v10s3.8-.7,3.8-.7v-9.3h3.8c.3,0,1,.2,0-.9Z"/>
        </g>
        <path class="st0" d="M242.1,40.2c.5-.4.8-1.1.8-1.9v-17.7c.6-.3.9-.6.9-.8s-.3-.4-.8-.4l-3.8-.4v18.2s.2,2.7-.7,3.8l3.6-.7Z"/>
        <g>
          <path class="st0" d="M214.7,37.2v-4.1c.5-.2.7-.4.7-.6s-.1-.3-.4-.5l-2.5-1.7-1.4,1.2h-2l-3.1-.9v8.4l3.3-.5v-1.9h1.8v.9l3.5-.5ZM209.3,35.6v-2.9h1.8v2.9h-1.8Z"/>
          <path class="st0" d="M220.6,20.6l-3.2-2-1.5,1.8h-11.3l-3.6-.6v10.2c0,1.7-.6,7.4-3.2,10.5,0,0,6.4-.9,6.8-10.5h0v-.3c0-.1,0-.2,0-.3v-.9s.2.8.2.8h10.6c.2,0,.8,0,.2-.8h0s-.2-.1-.2-.1c0,0,0,0-.2-.2l-1.5-1.6-1.2,1.5h-.8v-2.2h3.4c.3,0,1.1.1,0-1h0s-1.5-1.5-1.5-1.5l-1.2,1.3h-.7v-1c.4-.2.7-.4.7-.6s-.2-.4-.8-.4l-3.4-.2v2.2h-3l.3,1.2h2.8v2.2h-3.7v-6.3h11.4v15.6s.2,2.7-.7,3.8l3.6-.7c.6-.4.8-1.1.8-1.9v-16.5h.2c.6-.4.9-.6.9-.8s-.1-.3-.4-.5Z"/>
        </g>
      </g>
      <g>
        <path class="st0" d="M176.4,6c.4-.6.9-1.2,1.3-1.8,0,0,1.2.1,1.4-.9,0,0,0-.6-1-1L171,0s-6.9,15.5-21.8,24.3c0,0,14.1-2.8,25.1-15.7.6.7,2.3,2.7,4.8,5.1,6.1,7.1,15.1,10,15.1,10,.7-1.5,7-7.8,7-7.8-14.5-1.3-23.4-8.6-24.9-9.9Z"/>
        <path class="st0" d="M183,20.1l-4-3.6s-.7-.7-1.2.1l-2,3.1h-12.4c0,0,.4,1.7.4,1.7h18.7s1.7.2.6-1.3Z"/>
        <path class="st0" d="M188.7,26.6l-5-2.3-2.4,1.6h-23.2l.4,1.8h22c0,0-7,10.1-7,10.1-1.5,1.8-1.2,1.5-2.1,2.1l6.7,1c1.6.1,3-1.8,3-1.8l7-10c.8-.3,1.2-.8,1.2-.8.9-.9-.6-1.8-.6-1.8Z"/>
      </g>
    </g>
  </g>
</svg>