<?xml version="1.0" encoding="UTF-8"?>
<svg id="_圖層_1_拷貝" data-name="圖層 1 拷貝" xmlns="http://www.w3.org/2000/svg" viewBox="0 0 503.43 40.97">
  <defs>
    <style>
      .cls-1 {
        fill: #fff;
      }
    </style>
  </defs>
  <g>
    <path class="cls-1" d="M.17,33.45c4.94-4.43,7.87-7.85,7.87-10.65,0-1.84-1.01-2.95-2.73-2.95-1.33,0-2.44.86-3.35,1.87l-1.97-1.97c1.67-1.77,3.3-2.75,5.78-2.75,3.44,0,5.73,2.21,5.73,5.61s-2.73,6.84-6.05,10.08c.91-.1,2.12-.2,2.95-.2h3.96v3.05H.17v-2.09Z"/>
    <path class="cls-1" d="M16.52,26.37c0-6.3,2.46-9.37,6.17-9.37s6.15,3.1,6.15,9.37-2.46,9.52-6.15,9.52-6.17-3.25-6.17-9.52ZM25.43,26.37c0-5.09-1.18-6.57-2.73-6.57s-2.75,1.48-2.75,6.57,1.18,6.69,2.75,6.69,2.73-1.57,2.73-6.69Z"/>
    <path class="cls-1" d="M32.83,33.45c4.94-4.43,7.87-7.85,7.87-10.65,0-1.84-1.01-2.95-2.73-2.95-1.33,0-2.44.86-3.34,1.87l-1.97-1.97c1.67-1.77,3.3-2.75,5.78-2.75,3.44,0,5.73,2.21,5.73,5.61s-2.73,6.84-6.05,10.08c.91-.1,2.12-.2,2.95-.2h3.96v3.05h-12.2v-2.09Z"/>
    <path class="cls-1" d="M48.74,33.4l1.67-2.31c1.03,1.01,2.31,1.84,4.01,1.84,1.89,0,3.22-1.21,3.22-3.34s-1.23-3.3-3.07-3.3c-1.08,0-1.67.27-2.73.96l-1.65-1.08.49-8.83h9.74v3.03h-6.62l-.34,3.86c.71-.34,1.35-.52,2.19-.52,3.05,0,5.61,1.82,5.61,5.78s-3,6.4-6.37,6.4c-2.88,0-4.8-1.13-6.15-2.48Z"/>
    <path class="cls-1" d="M70.23,18.18c-1.4,1.82-3.1,3.17-4.85,4.11l-.3-.22c1.45-1.77,2.9-4.62,3.69-7.55l3.74,1.16c-.1.32-.42.52-.96.49-.25.47-.54.89-.81,1.3h2.93l1.23-1.67s1.43,1.18,2.26,1.99c-.07.27-.29.39-.64.39h-6.3ZM85.16,28.14l2.58,2.09c-.17.2-.47.34-.96.42-.25,2.75-.79,4.35-1.89,5.02-.71.42-1.6.66-2.88.66,0-.76-.07-1.48-.47-1.87-.37-.37-1.06-.69-2.02-.89v-.29c.89.05,2.31.15,2.8.15.34,0,.54-.02.71-.17.34-.27.66-1.33.86-3.08h-5.61v6.81c-.02.17-.91.74-2.41.74h-.54v-5.34c-2.39,2.12-5.78,3.67-9.81,4.67l-.17-.32c3.62-1.55,6.54-3.94,8.29-6.57h-3.27l-1.01,1.21-2.56-1.55c.22-.2.54-.39.89-.57.32-1.4.71-3.64.84-4.87l3.15,1.45h3.66v-2.95h-7.99l-.22-.71h15.4l1.3-1.35,2.68,1.99c-.12.17-.44.39-.89.47v3.64c-.02.2-1.43.76-2.36.76h-.49v-1.16h-4.48v2.95h5.44l1.43-1.35ZM75.34,29.49v-2.95h-4.35c-.2.91-.42,2.07-.64,2.95h4.99ZM71.19,18.62c5.09.52,2.9,4.21.93,2.68-.05-.91-.61-1.94-1.16-2.53l.22-.15ZM85.85,15.69s1.55,1.21,2.51,2.09c-.05.27-.32.39-.66.39h-7.77c-1.18,1.4-2.58,2.46-4.08,3.2l-.27-.22c1.21-1.55,2.39-4.08,3.05-6.67l3.62,1.35c-.1.32-.42.52-.96.47-.25.39-.52.79-.79,1.16h3.96l1.4-1.77ZM78.3,25.85h4.48v-2.95h-4.48v2.95ZM80.58,18.64c5.29.17,3.1,4.08,1.01,2.53-.07-.84-.64-1.85-1.23-2.39l.22-.15Z"/>
    <path class="cls-1" d="M89.8,37.46c4.23-3.91,6.22-10.7,6.59-17.81l4.18.76c-.07.29-.27.42-.98.42-1.13,7.28-3.67,13.13-9.57,16.82l-.22-.2ZM106.85,17.39c-.39.42-1.23.69-2.39.76.96,7.18,3.22,13.38,8.78,16.46l-.15.29c-1.3.44-2.36,1.65-2.78,2.83-4.58-4.16-5.95-10.68-6.54-20.1h-3.22l-.22-.69h2.68l1.08-1.62,2.75,2.07Z"/>
    <path class="cls-1" d="M119.43,24.08c0,4.48-.22,10.01-4.97,13.68l-.27-.2c2.24-3.89,2.36-8.85,2.36-13.48v-8.61l3.32,1.21h12.45l1.3-1.45,2.85,2.12c-.15.17-.49.42-1.01.52v4.08c-.02.15-1.5.62-2.41.62h-.49v-1.38h-13.13v2.9ZM136.94,24.23c-.05.32-.22.54-.81.64v11.73c0,.29-1.28.91-2.36.91h-.49v-1.67h-10.23l-.89,1.23-2.88-1.5c.22-.25.57-.54.91-.74v-11l3.59.34c-.05.37-.29.62-.91.71v10.23h10.4v-2.21c-.12.1-.27.15-.49.15h-9.47l-.2-.71h3.47v-4.75h-2.85l-.2-.71h3.05v-4.87l3.25.29c-.05.29-.2.49-.71.59v3.98h.49l1.11-1.6s1.3,1.13,2.04,1.92c-.05.27-.29.39-.64.39h-3v4.75h.79l1.28-1.82s1.25,1.11,2.09,1.99v-8.61l3.67.32ZM119.43,17.36v3.12h13.13v-3.12h-13.13Z"/>
  </g>
  <g>
    <path class="cls-1" d="M273.57,20.2c9.99,2.56,8.29,9.22,5.14,7.3-.3-.84-.79-1.75-1.38-2.63-3.62.74-8.88,1.62-15.27,2.53-.22.27-.47.44-.74.52l-.98-3.32s.69-.12.98-.29c2.53-1.35,6.2-5.49,7.35-7.85l4.01,1.6c-.1.27-.42.47-.98.42-1.89,1.99-5.46,4.5-8.61,6.15,3.3-.05,8.44-.2,13.8-.39-1.06-1.45-2.34-2.83-3.54-3.86l.22-.17ZM276.49,27.85l3.03,2.34c-.17.22-.54.47-1.13.59v7.92c-.02.15-1.55.69-2.56.69h-.49v-2.07h-9.4v1.25c0,.29-1.35.98-2.61.98h-.44v-11.34l3.22,1.25h8.93l1.45-1.62ZM275.34,36.63v-6.44h-9.4v6.44h9.4Z"/>
    <path class="cls-1" d="M283.55,22.51c5.98,1.16,3.57,5.49,1.33,3.69-.1-1.25-.86-2.61-1.57-3.52l.25-.17ZM288.96,22.93c-.52,2.48-1.5,7.01-1.7,8.09-.12.71-.22,1.53-.2,2.14.05,1.28.96,2.29.86,4.48-.05,1.18-.79,1.97-1.84,1.97-.52,0-1.01-.39-1.16-1.3.44-2.56.32-4.9-.17-5.26-.34-.25-.69-.34-1.21-.39v-.49h1.03c.32,0,.39,0,.66-.49q.39-.81,3.3-8.81l.42.07ZM284.95,16.73c6.27,1.21,3.79,5.71,1.45,3.84-.15-1.28-.93-2.71-1.62-3.67l.17-.17ZM293.09,22.51c3.35,1.8,1.62,4.23.42,3,0-.25-.02-.49-.07-.74-.89.37-2.12.84-3.3,1.28-.15.2-.29.34-.47.39l-.91-2.02s.42-.1.59-.2c.64-.47,1.33-1.33,1.97-2.26-.37.15-.76.29-1.11.44-.17.27-.34.44-.54.52l-.98-2.29s.39-.1.57-.2c.89-.74,1.94-2.93,2.26-4.01l2.56,1.16c-.1.2-.37.39-.89.34-.76.93-1.97,2.09-3.03,2.9.54,0,1.21,0,1.89-.03.37-.59.66-1.16.86-1.6l2.31,1.45c-.12.2-.44.37-.94.27-.86,1.03-2.29,2.39-3.66,3.39.79-.05,1.7-.12,2.66-.22-.12-.54-.34-1.06-.52-1.48l.32-.12ZM306.72,35.38c-.2.22-.47.34-.96.39-.37,1.77-.91,2.9-1.94,3.44-.69.37-1.7.52-2.98.52,0-.66-.1-1.21-.52-1.57-.42-.42-1.28-.69-2.34-.89v-.32c1.08.1,2.83.2,3.32.2.39,0,.59-.02.79-.12.3-.17.59-.79.79-1.7h-9.74l-.96,1.08-2.53-1.52c.25-.2.59-.42.96-.59.34-1.03.74-2.56.89-3.37l3,1.35h7.77v-1.72h-11.71l-.22-.71c-.76.84-2.19,0-1.21-1.33.52-.34.81-1.13.86-2.07h.37c.64,1.84.42,2.9-.02,3.39h11.71l.74-.79c-.07-.07-.12-.12-.2-.22.2-.91.12-2.04-.02-2.8l.34-.07c1.55,1.25,1.5,2.51.98,3.03l2.02,1.5c-.12.17-.42.34-.89.44v1.99c0,.15-1.43.59-2.26.59h-.49v-.52h-8.54c-.17.54-.37,1.13-.54,1.65h9.59l1.4-1.28,2.53,2.02ZM291.69,26.18c2.58,2.21.69,4.35-.32,3.03.2-.96.15-2.16-.02-2.95l.34-.07ZM293.09,25.74c3.12,1.82,1.55,4.13.39,2.98.02-.91-.34-2.09-.71-2.83l.32-.15ZM294.32,20l-.2-.71h3.96l.93-1.16s1.03.84,1.72,1.48c-.07.27-.3.39-.64.39h-5.78ZM299.76,20.67s.42-.07.57-.17c.98-.74,2.12-2.9,2.48-4.01l2.53,1.16c-.1.2-.37.42-.89.34-.79.93-2.04,2.07-3.15,2.88.59-.02,1.33-.02,2.07-.05.37-.57.66-1.13.86-1.55l2.31,1.48c-.12.2-.42.37-.93.27-.91,1.03-2.44,2.41-3.86,3.42.81-.05,1.84-.15,2.9-.25-.17-.52-.42-1.01-.64-1.38l.29-.12c3.64,1.6,1.97,4.21.66,3-.02-.27-.07-.57-.15-.86-.93.34-2.29.86-3.59,1.3-.15.17-.29.29-.44.37l-.47-1.06c-.1.12-.29.22-.54.27v2.98c-.02.2-.84.54-1.35.54h-.27v-.71h-1.43v.44c0,.12-.52.54-1.3.54h-.25v-5.31l1.84.81h.98l.76-.76,1.52,1.16-.42-.91s.42-.07.59-.2c.69-.49,1.5-1.4,2.19-2.39-.47.17-.91.37-1.38.54-.15.27-.34.47-.54.54l-.57-1.33c-.07.2-.3.29-.59.29h-4.48l-.2-.71h2.85l.86-1.03s.86.69,1.48,1.25l-.34-.79ZM298.65,21.97s.93.76,1.55,1.35c-.05.27-.27.39-.61.39h-4.48l-.2-.71h2.88l.86-1.03ZM295.52,16.41c4.08.74,2.31,3.71.74,2.48-.05-.81-.52-1.77-1.01-2.31l.27-.17ZM298.16,27.8v-2.09h-1.43v2.09h1.43ZM301.5,26.23c1.75,4.85-2.85,3.94-1.25,1.84.52-.3.84-1.01.91-1.84h.34ZM304.38,25.59c3.15,1.77,1.55,4.13.39,2.98.02-.93-.37-2.14-.74-2.85l.34-.12Z"/>
    <path class="cls-1" d="M320.88,24.65c.86,4.55,3.71,9.08,10.6,11.86l-.05.27c-1.5.27-2.39,1.18-2.66,2.85-5.73-3.49-7.58-9.47-8.24-14.39-.74,5.85-3.2,10.87-12.13,14.39l-.22-.37c6.84-4.13,8.76-9,9.3-14.61h-8.88l-.2-.71h9.13c.17-2.31.15-4.77.15-7.33l4.13.39c-.07.37-.3.62-.89.71-.05,2.14-.07,4.23-.25,6.22h5.53l1.82-2.24s1.99,1.5,3.22,2.56c-.07.27-.34.39-.71.39h-9.67Z"/>
    <path class="cls-1" d="M346.23,27.11c2.04,3.59,6.03,6.32,9.81,7.48l-.05.27c-1.13.25-2.04,1.21-2.44,2.63-3.74-2.07-6.3-5.49-7.82-10.38h-.02v11.46c0,.32-1.28,1.03-2.39,1.03h-.57v-9.35c-2.34,3.15-5.68,5.76-9.89,7.6l-.22-.29c3.76-2.61,6.81-6.64,8.41-10.45h-7.87l-.22-.69h9.79v-4.5h-7.58l-.17-.69h7.75v-4.7l3.86.37c-.05.34-.25.59-.91.69v3.64h3.54l1.65-2.07s1.87,1.38,2.98,2.36c-.07.27-.34.39-.66.39h-7.5v4.5h5.17l1.72-2.14s1.92,1.43,3.1,2.43c-.07.27-.34.39-.71.39h-8.76Z"/>
    <path class="cls-1" d="M377.07,23.01c-.1.32-.37.54-.94.54-.22.69-.47,1.33-.76,1.89,5.68,1.65,3.69,5.98,1.33,4.33-.27-1.16-1.01-2.39-1.8-3.42-.84,1.48-1.89,2.61-3.15,3.44,2.14,2.78,5.41,4.77,8.76,5.68l-.05.29c-1.11.25-1.99,1.16-2.31,2.53-3.81-1.87-6.35-5.04-7.87-9.72v9.99c0,.32-1.28,1.06-2.39,1.06h-.57v-7.43c-2.46,2.53-5.95,4.82-9.79,6.17l-.2-.32c4.28-2.34,8.24-6.71,9.99-11.34v-5.34h-9.4l-.2-.71h9.59v-4.06l3.84.39c-.05.34-.22.59-.89.69v2.98h5.14l1.7-2.09s1.87,1.43,3.05,2.41c-.07.27-.34.39-.71.39h-9.17v6c.3.66.66,1.3,1.11,1.89,1.06-1.84,1.8-4.38,2.02-7.13l3.67.86ZM365.55,23.18c-.1.32-.42.54-.93.54-.25.64-.52,1.25-.81,1.82,4.33,1.62,2.02,5.02.05,3.32-.05-.71-.32-1.5-.66-2.21-1.21,1.92-2.71,3.37-4.45,4.38l-.29-.22c1.62-2.04,3-5.17,3.57-8.63l3.54,1.01Z"/>
    <path class="cls-1" d="M404.9,18.85c-.17.22-.52.42-1.01.54v19.19c-.05.22-1.28.89-2.31.89h-.42v-1.77h-15.35v.91c0,.34-1.08,1.01-2.21,1.01h-.44v-22.61l2.88,1.21h14.88l1.33-1.48,2.66,2.12ZM401.16,36.98v-18.05h-15.35v18.05h15.35ZM393.54,31.12c-1.11.71-2.83,1.75-5.24,3.03-.12.29-.34.52-.61.59l-1.4-2.83c1.3-.12,4.26-.57,7.21-1.08l.05.29ZM400.82,25.44c-.12.29-.44.47-1.01.39-.71,1.97-1.6,3.62-2.66,5.02.37.71.79,1.38,1.33,1.92.27.32.39.29.59-.07.3-.52.71-1.57,1.01-2.44l.27.05-.39,3.37c.66,1.11.79,1.7.44,2.07-.86.89-2.46.07-3.25-.76-.64-.69-1.18-1.45-1.65-2.29-1.6,1.55-3.49,2.66-5.63,3.49l-.22-.3c1.89-1.18,3.64-2.8,5.07-4.87-.64-1.65-1.03-3.47-1.28-5.41-.1.12-.37.27-.69.32v3.64c-.02.17-.98.66-1.7.66h-.32v-.76h-1.5v.59c0,.15-.89.62-1.67.62h-.3v-6.47l2.07.86h1.23l.93-.96,1.94,1.45c-.1-.74-.15-1.5-.2-2.26h-6.67l-.2-.71h6.81c-.05-1.06-.07-2.17-.1-3.27l3.27.57c-.07.3-.29.57-.86.62,0,.69,0,1.4.02,2.09h1.94l.54-.71-.1-.05c-.25-.84-.94-1.8-1.53-2.34l.22-.17c3.27.15,3.54,1.77,2.8,2.46.42.34.94.76,1.3,1.13-.07.27-.32.39-.66.39h-4.48c.07,1.77.27,3.52.66,5.07.62-1.3,1.13-2.71,1.48-4.23l3.1,1.3ZM390.73,28.79v-3.03h-1.5v3.03h1.5Z"/>
    <path class="cls-1" d="M415.96,19.39c-.2.22-.52.29-1.08.32-.84,1.53-2.29,4.13-3.49,5.68,2.41,1.67,3.47,4.03,3.47,6.05.02,2.44-.84,3.81-3.49,3.86,0-.76-.07-1.8-.27-2.12-.17-.25-.52-.47-.98-.59v6.17c0,.2-.81.84-2.14.84h-.44v-22.43l2.9,1.11h1.43l1.43-1.4,2.68,2.51ZM411.31,32.25c.25,0,.39-.03.54-.12.3-.2.49-.64.49-1.43,0-1.72-.42-3.59-1.57-5.24.44-1.62.98-4.53,1.28-6.49h-1.94v13.28h1.21ZM429.52,19.88c-.2.22-.44.27-.96.3-.79.98-2.16,2.24-3.35,3.05,1.23,1.23,2.83,2.09,4.53,2.66l-.02.27c-.93.22-1.6,1.01-1.92,2.21-2.63-1.75-4.21-4.21-4.94-8.09-.12.05-.27.05-.44.07-1.13,3.64-3.49,7.01-7.8,8.98l-.22-.32c2.04-1.43,3.52-3.37,4.53-5.53-.3.05-.62-.02-.93-.25-.12-.57-.52-1.25-.94-1.72-.84,1.06-1.84,1.99-2.98,2.71l-.29-.2c1.55-1.77,2.75-4.85,3.22-7.45l3.17.93c-.12.25-.32.34-.91.25-.22.54-.49,1.08-.81,1.62h1.5l1.25-1.21,2.16,1.84s-.07.1-.12.12c.37,1.06.93,1.99,1.62,2.73.42-.93.84-2.17,1.11-3.15h-2.75l-.22-.71h2.88l1.3-1.33,2.34,2.21ZM418,23.92c-.42.52-1.11,1.25-1.97,2.07-.07.29-.25.52-.47.59l-1.18-1.92c.89-.15,2.29-.59,3.52-1.06l.1.32ZM414.46,38.28c1.18-1.6,2.29-4.06,2.73-5.76l3.1,1.45c-.12.22-.37.27-.81.22-.93,1.45-2.93,3.3-4.82,4.38l-.2-.29ZM426.51,29.23s1.62,1.25,2.58,2.19c-.05.27-.32.39-.66.39h-5.21v7.23c-.02.12-.84.57-2.21.57h-.47v-7.8h-5.02l-.2-.71h9.79l1.4-1.87ZM418.03,20.08c-.2.32-.42.64-.64.96,1.18.2,1.82.62,2.09,1.06.22-.66.42-1.33.59-2.02h-2.04ZM423.93,25.69s1.45,1.21,2.31,2.04c-.05.27-.32.39-.66.39h-7.5l-.2-.69h4.75l1.3-1.75ZM424.05,32.97c7.01,1.5,5.09,6.54,2.56,4.85-.37-1.62-1.67-3.49-2.78-4.67l.22-.17Z"/>
    <path class="cls-1" d="M451.01,17.52s1.97,1.43,3.15,2.44c-.07.27-.34.39-.69.39h-21.87l-.22-.69h10.45c-.27-1.13-1.21-2.34-2.07-3.03l.17-.15c4.7-.25,5.09,2.24,3.98,3.17h5.39l1.7-2.14ZM451.05,27.16l2.85,2.12c-.15.2-.49.42-1.01.52v6.69c0,1.84-.42,2.9-3.62,3.15-.07-.84-.17-1.48-.52-1.87s-.81-.71-1.97-.91v-.32s2.16.15,2.73.15c.37,0,.47-.17.47-.47v-6.91h-14.36v9.37c0,.29-1.25.93-2.44.93h-.42v-12.2l3.07,1.21h13.9l1.3-1.45ZM446.18,27.68v-1.11h-6.79v.54c0,.22-1.28.84-2.46.84h-.39v-6.84l3,1.18h6.4l1.3-1.45,2.8,2.12c-.15.2-.47.42-.96.52v3.62c-.02.15-1.5.59-2.41.59h-.49ZM447.29,36.04c-.02.17-1.3.71-2.21.71h-.44v-1.21h-3.86v.79c0,.22-1.21.79-2.26.79h-.37v-6.96l2.73,1.08h3.52l1.23-1.28,2.58,1.89c-.15.2-.44.39-.91.49v3.69ZM446.18,25.88v-2.88h-6.79v2.88h6.79ZM444.63,34.86v-2.9h-3.86v2.9h3.86Z"/>
    <path class="cls-1" d="M477.29,20.1c-.17.25-.42.32-1.01.37-.74,1.3-1.65,2.48-2.8,3.49,1.7.62,3.62,1.01,5.51,1.23v.27c-1.01.27-1.65,1.08-1.94,2.31-2.02-.59-3.84-1.35-5.36-2.43-1.99,1.3-4.43,2.31-7.26,2.93v7.58c0,.25-.93.69-1.7.69h-.39v-1.4h-3.81l-.66.81-2.26-1.11c.15-.2.44-.42.71-.59v-13.36l2.73.29c-.05.27-.2.47-.66.54v12.69h.96v-17.59l2.8.29c-.05.32-.25.54-.76.62v16.68h.96v-13.58l2.83.27c-.07.29-.22.52-.74.59v6.15c2.31-.93,4.28-2.16,5.85-3.64-.76-.71-1.4-1.55-1.94-2.48-.94,1.08-1.99,2.04-3.2,2.73l-.25-.17c1.52-1.84,2.71-5.02,3.17-7.72l3.76.59c-.05.27-.25.39-.89.39-.27.62-.59,1.23-.93,1.82h3.32l1.5-1.4,2.46,2.14ZM476.31,33.24s1.62,1.25,2.61,2.17c-.07.27-.34.39-.69.39h-5.68v3.07c0,.22-1.16.74-2.16.74h-.47v-3.81h-4.82l-.2-.71h5.02v-2.36h-3.84l-.2-.71h4.03v-2.29h-4.23l-.2-.71h4.43v-2.19l3.47.32c-.07.32-.22.54-.84.64v1.23h1.23l1.3-1.67s1.53,1.16,2.44,1.99c-.07.27-.32.39-.66.39h-4.3v2.29h1.11l1.28-1.67s1.45,1.16,2.34,1.99c-.05.27-.32.39-.66.39h-4.06v2.36h2.34l1.43-1.84ZM469.59,20.05c-.27.39-.54.74-.81,1.11.69.76,1.57,1.4,2.58,1.92.81-.93,1.45-1.97,1.94-3.03h-3.71Z"/>
    <path class="cls-1" d="M494.31,17.47c-.07.29-.37.44-1.18.54,2.26,2.09,6.81,3.35,10.31,3.89v.34c-1.21.39-1.99,1.65-2.14,2.75-.61-.22-1.21-.47-1.8-.76l1.18.88c-.07.12-.32.27-.62.34v4.65c-.02.2-1.33.71-2.16.71h-.44v-.71h-11.24v.2c0,.1-.12.25-.34.42l2.51.98h6.84l1.25-1.28,2.53,1.87c-.1.15-.34.29-.66.37v6c-.02.22-1.4.88-2.41.88h-.49v-1.28h-7.21v.47c0,.27-1.28.91-2.46.91h-.39v-8.66c-.34.15-.76.25-1.28.25h-.44v-6.69c-1.03.44-2.07.81-3.07,1.13l-.15-.3c4.11-2.09,8.54-6.2,9.62-8.98l4.26,1.06ZM498.24,23.6c-2.34-1.35-4.35-3.17-5.51-5.31-1.6,2.02-4.55,4.11-7.77,5.66l1.57.62h10.75l.96-.96ZM486.21,29.4h4.38v-4.13h-4.38v4.13ZM487.12,25.51c4.5,1.6,2.16,4.8.57,3.17.05-1.03-.39-2.26-.84-3.05l.27-.12ZM493.74,20.99s1.35,1.06,2.19,1.84c-.07.27-.29.39-.64.39h-6.96l-.2-.69h4.38l1.23-1.55ZM488.23,32.43v2.21h7.21v-2.21h-7.21ZM495.44,37.57v-2.24h-7.21v2.24h7.21ZM497.45,25.27h-4.43v4.13h.69c.39-1.16.84-2.73,1.08-3.89l2.66.89v-1.13ZM497.45,29.4v-2.61c-.15.07-.37.12-.66.1-.62.76-1.53,1.7-2.39,2.51h3.05Z"/>
  </g>
  <g>
    <g>
      <g>
        <path class="cls-1" d="M237.34,22.73c.49-.19.73-.39.73-.58,0-.22-.25-.35-.76-.4l-2.94-.3.1,14.28,2.86.12v-13.11Z"/>
        <path class="cls-1" d="M233.64,29.09h0s-2.12-2.31-2.12-2.31l-1.53,1.73-.02-6.29,3.34-.03h0c.38,0,.99.09-.04-.98h0s-1.98-1.94-1.98-1.94l-1.4,1.5h-7.08l.28,1.45h3.04v6.5s-3.68,0-3.68,0l.27,1.31h3.41v10.03s3.76-.69,3.76-.69l.1-9.35h3.67c.35-.03,1.04.15,0-.94Z"/>
      </g>
      <path class="cls-1" d="M242.09,40.17c.55-.45.82-1.09.82-1.92v-17.74c.58-.31.88-.59.88-.85,0-.21-.26-.35-.78-.43l-3.84-.35v18.2s.2,2.68-.69,3.76l3.62-.67Z"/>
      <g>
        <path class="cls-1" d="M214.66,37.17v-4.12c.49-.18.73-.38.73-.55,0-.13-.12-.29-.35-.49l-2.5-1.68-1.4,1.23h-1.96l-3.15-.86v8.35l3.3-.48v-1.87h1.83v.93l3.51-.48ZM209.32,35.61v-2.88h1.83v2.88h-1.83Z"/>
        <path class="cls-1" d="M220.61,20.56l-3.22-1.97-1.46,1.75h-11.27l-3.63-.61v10.18c-.09,1.71-.57,7.36-3.18,10.51,0,0,6.38-.94,6.84-10.51h.01v-.25c0-.1,0-.21.01-.31v-.9s.18.76.18.76h10.62c.24.05.83-.09.18-.76l.03.03-.16-.18c-.08-.09-.05-.06-.16-.16l-1.52-1.61-1.19,1.49-.84-.03v-2.21h3.37c.26,0,1.08.11.02-1.02h0s-1.54-1.54-1.54-1.54l-1.2,1.34h-.66v-1.01c.44-.17.66-.36.66-.56,0-.23-.25-.38-.75-.43l-3.39-.24v2.24h-3.03l.28,1.22h2.75v2.21h-3.68v-6.35h11.44v15.57s.19,2.67-.69,3.76l3.62-.67c.55-.45.83-1.1.83-1.92v-16.51l.16-.08c.61-.3.91-.55.91-.74,0-.14-.12-.3-.35-.48Z"/>
      </g>
    </g>
    <g>
      <path class="cls-1" d="M176.36,6c.44-.6.87-1.19,1.29-1.83,0,0,1.2.12,1.36-.85,0,0,.08-.64-1.01-.99l-6.99-2.33s-6.92,15.45-21.82,24.28c0,0,14.1-2.77,25.09-15.65.56.68,2.25,2.71,4.79,5.11,6.07,7.12,15.15,9.96,15.15,9.96.68-1.46,7.02-7.79,7.02-7.79-14.54-1.25-23.44-8.64-24.88-9.91Z"/>
      <path class="cls-1" d="M183.04,20.06l-4-3.58s-.71-.67-1.24.14l-2.05,3.05-12.37-.05.38,1.72h18.66s1.72.18.62-1.29Z"/>
      <path class="cls-1" d="M188.75,26.58l-4.99-2.32-2.43,1.61h-23.24l.39,1.76,22.02-.06-7.04,10.2c-1.5,1.83-1.22,1.49-2.06,2.14l6.71,1.03c1.62.14,2.96-1.76,2.96-1.76l6.98-10.04c.84-.28,1.25-.78,1.25-.78.9-.91-.56-1.77-.56-1.77Z"/>
    </g>
  </g>
</svg>