<?xml version="1.0" encoding="UTF-8"?>
<svg id="_圖層_1_拷貝" data-name="圖層 1 拷貝" xmlns="http://www.w3.org/2000/svg" viewBox="0 0 868.18 102.12">
  <defs>
    <style>
      .cls-1 {
        fill: #fff;
      }
    </style>
  </defs>
  <path class="cls-1" d="M40.52,71.32v-30.49h-11.32v40.62h63.79v14.88H13.51v-55.49H0v-14.77h13.51V4.43h15.69v21.63h11.32V2.22h15.06v23.84h11.22V3.17h15.9v22.89h12.78v14.77h-12.78v30.49h-42.18ZM55.58,40.83v16.46h11.22v-16.46h-11.22Z"/>
  <path class="cls-1" d="M175.48,51.48c6.96,5.38,16.1,9.6,26.08,12.03-3.32,3.06-7.9,9.07-10.08,13.08-5.61-1.9-10.81-4.33-15.58-7.49v31.86h-15.79v-37.56h8.1c-4.16-3.59-7.9-7.6-11.01-11.92h-10.08c-3.22,4.22-6.86,8.12-11.01,11.61h8.73v7.7c0,10.13-3.22,23.95-24.42,31.33-1.97-3.69-6.96-9.6-10.29-12.55,16.83-4.96,19.12-13.19,19.12-19.41v-1.9c-5.19,3.59-10.91,6.44-16.83,8.65-2.18-3.69-6.75-9.5-9.97-12.55,9.56-2.74,18.7-7.38,25.56-12.87h-13.92V4.85h76.16v46.63h-14.75ZM129.15,22.47h14.96v-5.38h-14.96v5.38ZM129.15,39.25h14.96v-5.49h-14.96v5.49ZM174.45,17.09h-15.06v5.38h15.06v-5.38ZM174.45,39.25v-5.49h-15.06v5.49h15.06Z"/>
  <path class="cls-1" d="M301.62,81.66v14.88h-91.74v-14.88h8.1V20.47h-7.27V5.8h87.07v14.66h-64v8.86h56.1v41.67h-56.1v10.66h67.84ZM233.77,44.2v11.92h40.52v-11.92h-40.52Z"/>
  <path class="cls-1" d="M326.35,54.23c-3.43-3.8-11.22-9.5-16.94-13.19l8.94-10.34c5.61,3.17,13.61,8.23,17.56,11.92l-9.56,11.6ZM338.61,64.67c-3.84,11.39-8.42,23-13.09,33.76l-13.82-8.76c4.26-8.23,10.08-21.31,14.55-33.87l12.36,8.86ZM328.94,28.27c-2.81-4.11-9.14-10.23-14.13-14.45l10.18-9.28c4.88,3.8,11.64,9.5,14.75,13.4l-10.81,10.34ZM405.31,70.68c-3.84,2.95-8.52,5.91-12.78,8.44,4.47,3.59,9.97,6.33,16.73,8.02-3.32,3.06-7.48,9.18-9.45,13.29-19.01-6.44-28.36-19.62-34.39-39.46h-9.87v20.57l16-4.33c.31,4.11,1.35,10.02,2.29,13.29-23.69,7.28-28.26,9.18-31.17,11.29-1.35-3.17-5.4-8.86-7.79-11.08,2.6-2.22,5.51-6.54,5.51-12.55V11.82h23.69c-.94-2.85-1.97-5.91-3.01-8.44l14.03-3.38c1.66,3.59,3.53,8.12,4.68,11.82h21.51v49.16h-4.99l9.04,9.71ZM355.54,24.9v5.17h30.96v-5.17h-30.96ZM355.54,47.9h30.96v-5.17h-30.96v5.17ZM379.75,60.98c1.25,3.06,2.6,5.91,4.26,8.55,3.95-2.53,8.31-5.8,11.43-8.55h-15.69Z"/>
  <path class="cls-1" d="M518.24,77.44h38.65v9.92h-38.65v1.48c0,6.54-1.77,9.39-6.65,11.08-4.99,1.58-11.32,1.69-19.64,1.69-.83-3.59-3.01-8.33-4.88-11.5,4.78.32,12.05.32,13.71.21,1.77,0,2.49-.42,2.49-2v-.95h-38.55v-9.92h38.55v-2.85h-32.62v-9.92h32.62v-2.53c-9.14.32-18.39.32-26.91.21-.21-2.64-1.45-6.96-2.49-9.39,21.92.11,47.38-.84,62.96-3.17h-55.69v-21.42h58.91v21.42h-.94l8.52,8.33c-8.52,1.58-18.7,2.64-29.4,3.38v3.17h33.35v9.92h-33.35v2.85ZM557.1,13.29v24.9h-14.75v-12.45h-63.38v12.45h-14.03V13.29h13.92c-1.35-2.74-3.12-5.7-4.78-8.02L487.28.11c2.81,3.27,5.61,7.91,6.96,11.08l-4.88,2.11h13.71V1.16h15.27v12.13h13.61l-5.82-2c2.6-3.17,5.82-7.6,7.58-10.87l15.79,4.54c-2.91,3.27-5.82,6.01-8.31,8.33h15.9ZM525.1,37.35h-30.03v3.59h30.03v-3.59Z"/>
  <path class="cls-1" d="M598.87,59.5l-9.97,2.85v21.63c0,6.54-.94,10.55-4.47,12.87-3.53,2.43-8.31,3.06-14.86,3.06-.31-4.01-1.97-10.34-3.74-14.45,3.01.11,6.23.11,7.48.11,1.14,0,1.56-.42,1.56-1.69v-17.62l-7.06,1.9-3.12-14.66c3.01-.63,6.44-1.37,10.18-2.22v-16.77h-8.42v-14.03h8.42V1.27h14.03v19.2h8.94v14.03h-8.94v13.4c2.7-.74,5.3-1.37,8-2.11l1.97,13.72ZM664.43,87.99v11.82h-56.62v-9.39c-1.35,4.01-3.01,7.81-4.99,11.29-2.81-2.22-9.35-6.01-12.88-7.28,9.97-17.51,10.7-43.25,10.7-60.66V4.96h60.68v27.22h-46.13v3.38h48v11.39h-8.94c4.05,5.17,8.1,11.71,9.66,16.35l-11.84,4.85c-.31-.95-.73-2.11-1.25-3.27l-7.06.53v5.49h16.73v11.29h-16.73v5.8h20.68ZM629,66.57c-7.06.63-9.35,1.16-11.22,1.9-.62-2.11-2.29-6.44-3.64-9.92-.94,9.92-2.6,20.15-5.51,29.43h20.36v-5.8h-15.48v-11.29h15.48v-4.33ZM614.87,46.95c-.1,2.85-.31,5.91-.52,8.97,1.35-.63,2.81-1.69,4.05-3.06.94-.95,2.81-3.06,4.99-5.91h-8.52ZM615.18,16.67v3.8h30.96v-3.8h-30.96ZM645,54.23c-.94-1.48-1.97-2.85-2.91-4.22l7.58-3.06h-9.66c-1.97,2.64-4.36,5.27-6.75,7.91l11.74-.63Z"/>
  <path class="cls-1" d="M730.09,44.42c6.75,19.1,18.81,34.5,37.92,41.99-3.74,3.38-8.83,10.13-11.22,14.56-18.29-8.55-29.71-22.58-37.71-41.25-5.92,16.25-16.94,30.91-37.4,41.25-2.39-4.22-6.96-9.71-11.43-13.08,22.75-10.44,32.31-26.27,36.47-43.47h-34.39v-15.93h36.88c.73-9.28.62-18.57.73-27.32h16.62c-.1,8.76-.21,18.04-1.04,27.32h39.9v15.93h-35.32Z"/>
  <path class="cls-1" d="M868.18,43.25s-.1,4.22-.21,6.01c-.94,29.86-1.97,41.99-4.99,46.1-2.49,3.48-5.09,4.64-8.52,5.28-3.01.63-7.48.74-12.47.63-.1-2.64-.83-6.12-1.87-9.18h-24.52v6.44h-13.82v-37.03h41.97v25.74h2.49c1.45.11,2.39-.32,3.32-1.58,1.56-2,2.39-9.71,3.01-29.12h-54.44c-1.77,14.98-5.71,30.91-13.61,42.09-2.49-2.85-8.83-8.02-12.16-9.71,11.33-16.14,12.16-40.3,12.16-56.97V5.7h75.74v32.18h-60.88c0,1.69-.1,3.48-.21,5.38h68.99ZM799.5,18.46v6.65h45.61v-6.65h-45.61ZM829.73,73.43h-14.13v6.75h14.13v-6.75Z"/>
</svg>