<?xml version="1.0" encoding="UTF-8"?>
<svg xmlns="http://www.w3.org/2000/svg" version="1.1" viewBox="0 0 34.5 46.2">
  <defs>
    <style>
      .cls-1 {
        fill: #2da1ff;
      }
    </style>
  </defs>
  <!-- Generator: Adobe Illustrator 28.7.5, SVG Export Plug-In . SVG Version: 1.2.0 Build 176)  -->
  <g>
    <g id="layout">
      <path class="cls-1" d="M0,17.2C.6,8.2,5.8,2.1,14,.4c9.8-2.1,19.3,5,20.4,14.9.4,3.3-.4,6.3-1.7,9.1-3.4,7.6-8.3,14.2-13.4,20.7-1.1,1.4-3,1.4-4.1,0-5.1-6.4-9.9-13-13.3-20.5-1.2-2.5-1.9-5.1-1.9-7.4ZM17.3,11.5c-3.3,0-5.9,2.6-5.9,5.9,0,3.2,2.7,5.8,5.9,5.8s5.9-2.6,5.9-5.9c0-3.2-2.7-5.8-5.9-5.8Z"/>
    </g>
  </g>
</svg>