<?xml version="1.0" encoding="UTF-8"?>
<svg xmlns="http://www.w3.org/2000/svg" version="1.1" viewBox="0 0 24 24">
  <defs>
    <style>
      .cls-1 {
        fill: #216093;
      }
    </style>
  </defs>
  <!-- Generator: Adobe Illustrator 28.7.6, SVG Export Plug-In . SVG Version: 1.2.0 Build 188)  -->
  <g>
    <g id="Layer_1">
      <path class="cls-1" d="M23,11h-2.2c-.2,0-.3,0-.4-.2l-1.4-2.3c-.9-1.5-2.5-2.4-4.3-2.4h-3.8c-1,0-1.8.5-2.2,1.4l-1.6,3.2c-.2.5,0,1.1.4,1.3.5.2,1.1,0,1.3-.4l1.6-3.2c0-.2.3-.3.4-.3h1.6l-1.8,4.3c-.6,1.4,0,2.9,1.2,3.7l3.8,2.5c.1,0,.2.2.2.4v4.2c0,.6.4,1,1,1s1-.4,1-1v-4.2c0-.9-.4-1.6-1.1-2.1l-2.2-1.4,2.5-6.1c0,0,.2.2.2.3l1.4,2.3c.4.7,1.3,1.2,2.1,1.2h2.2c.6,0,1-.4,1-1s-.4-1-1-1h0ZM14.5,2.5c0-1.4,1.1-2.5,2.5-2.5s2.5,1.1,2.5,2.5-1.1,2.5-2.5,2.5-2.5-1.1-2.5-2.5ZM2,3c0-.6.4-1,1-1h7c.6,0,1,.4,1,1s-.4,1-1,1H3c-.6,0-1-.4-1-1ZM4,12H1c-.6,0-1-.4-1-1s.4-1,1-1h3c.6,0,1,.4,1,1s-.4,1-1,1ZM1,7c0-.6.4-1,1-1h4c.6,0,1,.4,1,1s-.4,1-1,1H2c-.6,0-1-.4-1-1ZM11.4,18.4c-.3.6-1.1,1.6-2.4,1.6h-4c-.6,0-1-.4-1-1s.4-1,1-1h4c.4,0,.6-.5.6-.5.3-.5.9-.7,1.3-.4.5.3.7.8.4,1.3h0Z"/>
    </g>
  </g>
</svg>