<?xml version="1.0" encoding="UTF-8"?>
<svg id="_圖層_1" data-name="圖層 1" xmlns="http://www.w3.org/2000/svg" viewBox="0 0 246.94 42.04">
  <defs>
    <style>
      .cls-1 {
        fill: #fff;
      }
    </style>
  </defs>
  <g>
    <polygon class="cls-1" points="29.73 18.07 30.01 18.09 30.01 14.57 29.73 18.07"/>
    <path class="cls-1" d="M28.56,17.93l.37.05.67-4.72c-.12-.02-.24-.05-.36-.07l-.67,4.74Z"/>
    <path class="cls-1" d="M27.39,17.72l.36.07.97-4.73c-.12-.03-.24-.07-.35-.11l-.98,4.76Z"/>
    <path class="cls-1" d="M26.24,17.43l.36.1,1.29-4.74c-.12-.04-.23-.09-.34-.14l-1.3,4.78Z"/>
    <path class="cls-1" d="M25.11,17.07l.35.12,1.62-4.76c-.11-.05-.22-.11-.33-.17l-1.64,4.81Z"/>
    <path class="cls-1" d="M24,16.64l.34.14,1.97-4.77c-.11-.06-.21-.13-.32-.2l-2,4.83Z"/>
    <path class="cls-1" d="M22.93,16.15l.33.16,2.33-4.78c-.1-.07-.2-.15-.3-.23l-2.37,4.84Z"/>
    <path class="cls-1" d="M21.88,15.58l.32.18,2.72-4.78c-.09-.08-.19-.17-.28-.26l-2.76,4.85Z"/>
    <path class="cls-1" d="M20.88,14.95l.31.2,3.12-4.76c-.09-.09-.17-.19-.26-.28l-3.17,4.84Z"/>
    <path class="cls-1" d="M19.91,14.26l.3.22,3.54-4.73c-.08-.1-.16-.2-.23-.3l-3.6,4.81Z"/>
    <path class="cls-1" d="M18.99,13.51l.28.24,3.98-4.67c-.07-.11-.14-.21-.21-.32l-4.05,4.75Z"/>
    <path class="cls-1" d="M18.12,12.71l.27.26,4.44-4.59c-.06-.11-.12-.23-.18-.34l-4.52,4.67Z"/>
    <path class="cls-1" d="M17.31,11.85l.25.27,4.91-4.47c-.05-.12-.1-.24-.15-.36l-5,4.56Z"/>
    <path class="cls-1" d="M16.54,10.94l.23.29,5.39-4.33c-.04-.12-.09-.25-.12-.37l-5.5,4.41Z"/>
    <path class="cls-1" d="M15.84,9.98l.21.3,5.88-4.14c-.03-.13-.06-.26-.09-.39l-6,4.22Z"/>
    <path class="cls-1" d="M15.2,8.99l.19.31,6.37-3.91c-.02-.13-.04-.26-.06-.39l-6.51,4Z"/>
    <path class="cls-1" d="M14.62,7.95l.17.33,6.87-3.64c-.01-.13-.02-.27-.03-.4l-7.01,3.72Z"/>
    <path class="cls-1" d="M21.61,3.48l-7.51,3.4.15.34,7.36-3.33c0-.08,0-.15,0-.23,0-.06,0-.12,0-.18Z"/>
    <path class="cls-1" d="M13.66,5.78l.13.34,7.83-2.97c0-.14.02-.27.03-.41l-7.99,3.03Z"/>
    <path class="cls-1" d="M13.29,4.66l.11.35,8.29-2.56c.02-.14.04-.27.06-.4l-8.46,2.61Z"/>
    <path class="cls-1" d="M12.98,3.51l.09.36,8.72-2.1c.03-.13.06-.27.09-.4l-8.9,2.15Z"/>
    <path class="cls-1" d="M20.04,1.07l-7.28,1.28.06.36,9.13-1.6s0-.03.01-.04h-1.92Z"/>
    <polygon class="cls-1" points="12.64 1.54 16.85 1.07 13.52 1.07 12.6 1.17 12.64 1.54"/>
    <g>
      <polygon class="cls-1" points="-.01 10.81 -.01 15.96 .19 10.81 -.01 10.81"/>
      <polygon class="cls-1" points=".31 16.17 .64 16.17 .64 16.17 .98 16.17 .99 16.17 1.34 16.17 2.95 10.81 2.59 10.81 .99 16.15 2.23 10.81 1.88 10.81 .66 16.07 1.54 10.81 1.19 10.81 .32 16.01 .86 10.81 .52 10.81 -.01 15.97 -.01 16.17 .3 16.17 .31 16.17"/>
      <polygon class="cls-1" points="1.71 16.17 3.69 10.81 3.33 10.81 1.34 16.17 1.71 16.17"/>
      <polygon class="cls-1" points="2.09 16.17 4.47 10.81 4.1 10.81 1.72 16.17 2.09 16.17"/>
      <polygon class="cls-1" points="2.5 16.17 5.29 10.81 4.91 10.81 2.12 16.17 2.5 16.17"/>
      <polygon class="cls-1" points="2.94 16.17 6.17 10.81 5.78 10.81 2.54 16.17 2.94 16.17"/>
      <polygon class="cls-1" points="3.41 16.17 7.12 10.81 6.71 10.81 3 16.17 3.41 16.17"/>
      <polygon class="cls-1" points="3.93 16.17 8.16 10.81 7.73 10.81 3.5 16.17 3.93 16.17"/>
      <polygon class="cls-1" points="4.5 16.17 9.31 10.81 8.85 10.81 4.04 16.17 4.5 16.17"/>
      <polygon class="cls-1" points="5.14 16.17 10.6 10.81 10.11 10.81 4.66 16.17 5.14 16.17"/>
      <path class="cls-1" d="M9.59,24.56l11.9,3.57c-.1-.15-.2-.3-.3-.45l-16.35-4.9,15.31,3.56c-.13-.15-.26-.3-.39-.44l-14.85-3.45,13.67,2.28c-.16-.15-.33-.29-.49-.43l-13.12-2.19,11.84,1.22c-.2-.14-.41-.28-.62-.41l-11.18-1.15,9.83.39c-.26-.13-.52-.25-.79-.37l-9.03-.36,7.66-.18c-.34-.12-.68-.22-1.03-.32l-6.64.15,5.32-.46c-.49-.09-.98-.16-1.48-.21l-3.87.33,2.73-.41c-.2,0-.4-.01-.59-.01-1.08,0-2.14.1-3.16.29-.31.06-.61.12-.91.2,0,0,0,0-.01,0h0s.17-.15.17-.15l.21-.18.15-.13.34-.3.1-.09.57-.5h.01s.79-.71.79-.71l-.84.36,1.01-.5,1-.88-2.16,1.08,2.74-1.59,1.19-1.05.12-.1-4.22,2.45,5.99-4,1.97-1.72-8.15,5.44,9.74-7.42h-.56l-9.39,7.15,8.25-7.15h-.52l-6.19,5.36h.27l-3.74,3.26-.46.4-.65.56-.27.24-.11.09-.19.17h0s-.12.1-.12.1l-.03.03-.05.04-.03.02v.02s0,.03,0,.03H-.01s0,.03,0,.03h0s0,.03,0,.03v.02s0,0,0,0v.02s0,.01,0,.01h0s0,.03,0,.03H-.01s0,.02,0,.02h0s0,.02,0,.02h0s0,.02,0,.02h0s0,.02,0,.02h0s0,.02,0,.02h0s0,.02,0,.02h0s0,.03,0,.03h0s0,.03,0,.03H-.02s0,.03,0,.03h0s0,.02,0,.02h0s0,.02,0,.02v.02s0,0,0,0v.03s0,.01,0,.01h0s0,.04,0,.04h0s0,.03,0,.03v.03s0,0,0,0v.03s0,.03,0,.03H-.02s0,.04,0,.04v.04s0,0,0,0v.05s0,.05,0,.05H-.02s0,.06,0,.06v.07s0,.03,0,.03v.05s0,.1,0,.1v.08s0,.03,0,.03v.15s0,.19,0,.19v.04s0,.22,0,.22v.37s0,1.2,0,1.2h.01s.03-.03.05-.04c.02,0,.03-.02.05-.03.04-.02.09-.05.14-.07.01,0,.03-.01.04-.02.05-.02.09-.05.14-.07.01,0,.02-.01.04-.02.05-.02.09-.05.14-.07.01,0,.02,0,.03-.01.05-.02.09-.04.14-.06.01,0,.02,0,.03-.01.05-.02.09-.04.14-.06.01,0,.02,0,.03-.01.05-.02.1-.04.14-.06.01,0,.02,0,.04-.01.05-.02.09-.04.14-.06.01,0,.03-.01.04-.02.05-.02.1-.04.14-.05.02,0,.03-.01.05-.02.05-.02.1-.03.15-.05.02,0,.04-.01.06-.02.05-.02.1-.03.14-.05.03,0,.05-.01.08-.02.05-.01.1-.03.15-.04.03,0,.06-.02.1-.03.05-.01.1-.03.14-.04.04-.01.09-.02.13-.03.05-.01.1-.02.14-.03.06-.01.11-.03.17-.04.05,0,.09-.02.14-.03.08-.02.16-.03.24-.04.04,0,.08-.02.13-.02.12-.02.23-.03.35-.05.03,0,.07,0,.1-.01.18-.02.37-.03.55-.04.02,0,.04,0,.06,0,.15,0,.29-.01.44-.01.16,0,.33,0,.49.01l-.51-.19.67.2c1.52.1,2.94.54,4.18,1.25Z"/>
      <path class="cls-1" d="M11.48,25.96l11.1,4.1c-.07-.15-.15-.3-.22-.45l-11.63-4.3c.26.2.51.41.75.64Z"/>
      <path class="cls-1" d="M12.72,27.38l10.69,4.73c-.05-.15-.1-.29-.15-.44l-10.97-4.86c.15.18.29.37.43.56Z"/>
      <path class="cls-1" d="M13.59,28.86l10.37,5.4c-.03-.14-.06-.29-.09-.43l-10.55-5.49c.1.17.19.35.27.52Z"/>
      <path class="cls-1" d="M14.16,30.36l10.08,6.08c0-.14-.02-.28-.03-.42l-10.2-6.15c.06.16.11.33.15.49Z"/>
      <path class="cls-1" d="M14.4,31.42c.03.15.05.31.07.46l9.76,6.76c0-.13.02-.27.02-.4l-9.85-6.82Z"/>
      <path class="cls-1" d="M14.54,33.05c0,.11,0,.22,0,.33l9.41,7.43c.02-.13.05-.25.07-.38l-9.48-7.48s0,.06,0,.1Z"/>
      <path class="cls-1" d="M14.37,34.86l8.01,7.18h.51l-8.45-7.58c-.02.13-.04.27-.07.4Z"/>
      <path class="cls-1" d="M13.99,36.27l5.67,5.77h.48l-6.03-6.14c-.04.12-.08.24-.12.36Z"/>
      <path class="cls-1" d="M13.42,37.59l3.86,4.45h.45l-4.14-4.78c-.05.11-.11.22-.17.33Z"/>
      <path class="cls-1" d="M12.66,38.8l2.46,3.23h.43l-2.69-3.52c-.07.1-.14.19-.21.29Z"/>
      <path class="cls-1" d="M11.74,39.89l1.43,2.15h.41l-1.6-2.4c-.08.09-.16.17-.24.25Z"/>
      <path class="cls-1" d="M10.68,40.83l.7,1.21h.39l-.82-1.42c-.09.07-.18.14-.27.21Z"/>
      <path class="cls-1" d="M9.49,41.6l.22.44h.38l-.3-.61c-.1.06-.2.11-.3.17Z"/>
    </g>
  </g>
  <g>
    <g>
      <path class="cls-1" d="M48.14,6.64c.24-1.82,1.54-3.68,4.49-3.68s4.28,1.84,4.28,3.76c0,1.81-1.09,2.76-2.02,3.08v.05c1.46.45,2.68,1.61,2.68,3.79,0,2.43-1.52,4.63-4.98,4.63-3.18,0-4.66-2.03-4.91-4.01h1.52c.33,1.41,1.43,2.68,3.47,2.68,2.35,0,3.29-1.57,3.29-3.28,0-2.18-1.39-3.1-3.49-3.1h-.96v-1.3h.78c2.11,0,3.04-.86,3.04-2.52,0-1.45-.99-2.46-2.77-2.46-1.87,0-2.63,1-2.96,2.34h-1.48Z"/>
      <path class="cls-1" d="M72.54,10.51c0,3.51-.95,7.77-4.98,7.77s-4.96-3.94-4.96-7.66,1.12-7.66,5.03-7.66,4.92,3.92,4.92,7.55ZM64.23,10.63c0,2.85.55,6.3,3.34,6.3s3.36-3.29,3.36-6.41c0-2.84-.54-6.2-3.28-6.2s-3.42,3.06-3.42,6.32Z"/>
      <path class="cls-1" d="M78.89,19.52c-.08-.13-.93-1.88-.91-1.91,0-.02.43-.25.93-.5.99-.48,1.14-.58,1.26-.77.1-.19.1-3.91-.02-4.06-.21-.29-.89-.33-1.64-.08q-.29.1-.48-.31c-.21-.46-.21-.54-.06-.5,1.35.27,1.93.13,2.42-.54.48-.72.5-.72,1.39.04,1.02.85,1.14,1.06.6,1.26-.52.19-.52.17-.54,1.9,0,1.93.06,2.22.56,2.03.29-.12.89-2.2,1.1-3.85.15-1.31.17-1.51.17-5.78.02-3.27.04-4.2.08-4.24.04-.02.29.06.93.33q.89.35,3.98.37c3.69,0,3.35.06,3.89-.6.39-.46.41-.46,1.1.04,1.08.81,1.18,1.03.64,1.3-.39.21-.35-.33-.35,5.82,0,7.16.06,6.87-1.37,7.21-.73.17-.87.15-.93-.15-.12-.74-.56-1.08-1.68-1.33-.12-.02-.17-.1-.14-.19.02-.06.08-.06.41-.04,1.61.1,1.84.08,1.97-.23.1-.21.12-5.57.02-5.8-.08-.21,0-.19-2.36-.17-2.2.04-2.32.04-3.5.19-.31.04-.37.04-.39,0-.54-.91-.54-.89.02-.81,1.72.17,1.88.12,1.91-.74.04-1.18-.31-1.43-1.37-1.04-.29.12-.29.1-.52-.35-.23-.44-.21-.48.08-.43.89.16,1.6.08,1.72-.17.08-.12.06-1.35,0-1.61-.02-.06-.02-.08.06-.1.12-.04.1-.1-.08-.17-.29-.12-2.05-.12-2.24.02-.25.15-.37,3.89-.14,4.52.06.19.06.21-.02.5-.04.19-.1.6-.12,1.01-.17,2.94-.81,4.83-2.17,6.4-.52.6-.41.83.62,1.18,1.16.39,2.77.44,9.77.37,2.03-.02,2.09-.02,1.53.25-.41.21-.73.64-.89,1.22-.06.19-6.88.29-8.3.1-1.78-.21-2.84-.79-3.67-1.99-.54-.79-.52-.79-1.49.37-.35.42-.83.99-1.06,1.24-.21.25-.43.5-.43.56-.08.27-.19.37-.29.27ZM80.58,8.96c-.12-.04-.17-.1-.29-.31-.39-.66-1.04-1.41-1.7-1.99-.23-.19-.41-.35-.43-.37-.12-.31,1.53-.08,2.38.35,1.57.75,1.59,2.77.04,2.32ZM81.31,5.09q-.19-.06-.41-.46c-.31-.58-.72-1.1-1.39-1.78-.75-.75-.73-.79.25-.62,1.57.29,2.57,1.02,2.65,1.95.04.7-.48,1.12-1.1.91ZM86.32,15.11c-.19-.02-.21-.1-.15-1.22.06-1.33.02-3.19-.1-4.18-.04-.27-.02-.27.68.04q.89.41,1.78.41c.95,0,.99-.02,1.37-.43.35-.41.48-.39,1.16.17.6.46.68.66.41.79-.39.19-.41.35-.35,1.99.06,1.53.1,1.35-.46,1.64-.58.27-1.01.27-1.01-.02,0-.12-.1-.23-.25-.33-.15-.08-1.43-.06-1.57.02-.14.1-.23.27-.23.46,0,.37-.72.74-1.28.64ZM89.38,13.33c.25-.12.27-.21.27-1.28q0-1.35-1.02-1.35t-1.03,1.35,1.03,1.35c.5,0,.64-.02.75-.08ZM90.11,8.09c.12-.06.29-.23.5-.52.29-.43.35-.43.79-.06.91.72.87.79.87-1.78s.25-2.3-1.93-2.3-2.48.08-1.31.56c.72.31.85.44.56.6-.19.1-.27.62-.12.83.21.31.52.17.91-.41.23-.35.33-.35.85.08.99.83.87,1.06-.56,1.08-1.31.02-1.3,0-1.3,1.01,0,.89.23,1.18.73.91Z"/>
      <path class="cls-1" d="M111.58,19.59c-.27-.06-.33-.19-.29-.64.12-1.76.14-3.85.04-4.06-.14-.27.04-.25-3.13-.25-2.88,0-3.35.02-4.45.15-.73.1-.66.14-.91-.33-.19-.39-.23-.5-.1-.5,2.32.19,2.98.17,3.11-.16.14-.27.06-3.87-.1-5.22-.08-.64-.15-.62.99-.17,1.33.54,1.08.5,2.82.5,2.01,0,1.82.21,1.82-1.86s.19-1.9-1.89-1.9c-1.91,0-1.8-.04-2.38.72-1.22,1.55-3.04,3.25-4.1,3.81-.33.17-.39-.04-.1-.37,1.66-1.91,3.29-4.87,3.96-7.29.1-.35.19-.66.19-.68.02-.08.14-.08.33.02.1.04.41.17.7.29,1.37.58,1.7.83,1.3.99-.27.1-.37.21-.83,1.04-.62,1.04-.91.97,3.67.97s3.85.1,4.54-.83c.58-.77.52-.77,1.37-.14,1.88,1.41,1.84,1.45-1.76,1.47-3.5.02-3.07-.23-3.07,1.9,0,2.01-.12,1.86,1.28,1.86,1.22,0,1.1.06,1.78-.85.48-.64.46-.64,1.24-.04,1.74,1.35,1.7,1.41-1.53,1.43-3.15.02-2.77-.31-2.77,2.32s-.19,2.32,1.76,2.32c1.74,0,1.53.1,2.4-1.04.41-.52.39-.52.91-.15.81.58,1.53,1.28,1.51,1.47-.04.27.1.25-3.27.27-3.31.02-3.13,0-3.25.25-.08.15-.08,1.41-.02,3q.06,1.08-.08,1.22c-.31.33-1.26.6-1.7.48ZM111.11,14.02c.27-.14.27-.1.27-2.24,0-2.59.19-2.32-1.8-2.32s-1.82-.27-1.82,2.32c0,2.17,0,2.13.25,2.26.21.1,2.9.1,3.09-.02Z"/>
      <path class="cls-1" d="M132.97,19.43c-.08-.1-.04-.19.13-.25,1.47-.54,1.91-.73,2.65-1.12.98-.5,1.8-1.08,2.36-1.66.55-.56.57-.68.13-1.3-.15-.21-.34-.5-.42-.64-.32-.52-.45-.43-1.08.68-.34.62-.4.74-.42.93-.04.35-.09.31-.6-.41-.53-.73-.51-.7-.25-.87.28-.21,1.21-.93,1.44-1.12.28-.25.4-.41.43-.64.06-.27.09-.29.36-.17s.28.15.15.33c-.23.31-.13.56.49,1.22.79.83,1.1.62,1.53-1.1.32-1.22.3-1.22-1.47-1.22-1.51,0-1.61.02-1.68.46-.02.17-.08.23-.43.41-.89.41-1.4.29-1.34-.31.11-1.51.13-5.16,0-6.42-.11-1.2-.11-1.18-.06-1.18.02,0,.43.17.91.37,1.17.5,1.02.48,2.65.48,1.87,0,1.78.06,1.78-1.12,0-1.24.25-1.12-2.7-1.1-2.34.02-2.7.02-3.74.19-.45.06-.45.08-.68-.39-.19-.41-.21-.5-.02-.46.53.1,1.46.12,6.86.12,6.88.02,5.97.14,6.69-.83.45-.6.51-.66.74-.54.55.29,1.8,1.41,1.78,1.61-.04.29.15.27-3.55.29-4.06.02-3.63-.12-3.63,1.12s-.08,1.12,1.72,1.12q1.55,0,1.89-.43c.59-.7.66-.7,1.7.19.68.58.72.72.3.95-.17.08-.36.31-.38.46-.04.21,0,3.79.06,4.64.06.81.08.75-.4.99-.79.41-1.4.41-1.42,0-.06-.6-.09-.62-1.8-.62-1.83,0-1.76-.04-1.95.87-.21.89-.43,1.51-.87,2.26-.4.7-.34.81.7,1.2,1.57.58,3.69.97,6.12,1.08,1.97.1,2,.12,1.47.39-.42.21-.87.81-1,1.37-.06.23-.04.23-.89.12-2.97-.41-5.22-1.12-6.8-2.19-.77-.52-.68-.54-1.72.19-1.23.83-2.97,1.51-5.16,1.99-.49.12-.51.12-.59.06ZM139.96,8.6c.38-.17.4-1.88.04-2.11-.17-.1-2.85-.1-3.02,0-.36.23-.34,1.93.04,2.11.21.12,2.74.12,2.95,0ZM139.96,11.48c.36-.23.4-1.99.04-2.2-.17-.1-2.85-.1-3.02,0-.34.21-.34,1.99,0,2.19.15.12,2.82.12,2.99.02ZM145.22,11.44c.32-.21.32-1.92,0-2.13-.17-.14-2.84-.16-3.02-.04-.34.21-.38,2.03-.04,2.2.19.12,2.91.08,3.06-.04ZM145.16,8.62c.38-.19.42-1.84.06-2.09-.17-.14-2.84-.15-3.02-.04-.36.23-.34,1.93.04,2.11.19.1,2.74.12,2.93.02Z"/>
      <path class="cls-1" d="M166.92,19.47s-.04-.1-.04-.16c0-.85-.55-1.45-1.53-1.7-.42-.12-.51-.17-.45-.29.02-.06.06-.06.26-.04,1.63.15,2.19.12,2.34-.17.11-.21.11-6.09,0-6.25-.23-.33-1.61-.33-3.21-.04-.38.06-.36.08-.53-.23-.28-.52-.4-.41-.7.74-.15.64-.38,1.31-.68,2.17-.15.41-.11.48.42,1.02,1.08,1.08,1.57,2.34,1.17,3.08-.32.66-1.06.58-1.36-.14-.42-1.04-.95-1.82-1.21-1.82-.15,0-.23.08-.62.56-.96,1.16-2.12,2.09-3.53,2.82-.42.21-.43.21-.49.16-.09-.12-.08-.17.15-.31,1.17-.79,2.48-2.3,3.21-3.73.38-.75.36-.89-.26-1.47-.7-.68-.93-.66-1.11.08-.11.46-.55.6-1.36.46-.4-.08-.4-.04-.15-.83.51-1.7,1.49-5.69,1.49-6.07,0-.45-.55-.56-1.32-.29q-.32.12-.53-.31c-.23-.48-.25-.52-.04-.48,1.27.19,2,.14,2.17-.21.19-.37.59-3.09.59-4,0-.56-.06-.54.74-.35,1.34.33,1.72.54,1.23.75-.19.08-.28.35-.49,1.33-.09.48-.25,1.14-.3,1.43-.23,1.03-.17,1.14.53,1.14.57,0,.62-.04,1.1-.54.51-.56.53-.56,1.34.19.76.7.85.95.43,1.08-.3.12-.42.31-.49.85-.02.17-.08.64-.13,1.01-.08.62-.09.95-.02,1.02.11.1,3.63.17,3.82.08.28-.15.32-.93.13-2.78-.08-.68-.09-.64.34-.58,1,.17,1.08.14,2.12-1.51.93-1.45,1-1.39-1.83-1.35-1.97.02-2.32.04-3.33.17-.6.08-.55.12-.79-.37-.26-.48-.26-.5.09-.46.85.08,1.66.1,3.97.1,3.06,0,2.72.06,3.33-.54.59-.58.53-.58,1.29.12.93.83,1.04,1.2.42,1.2-.17,0-.55.23-.96.6-.59.5-1.36,1.16-1.87,1.57-.51.41-.66.7-.42.75.17.04,0,.41-.19.41-.23,0-.32.41-.32,1.45q0,1.3,1.04,1.3.89,0,1.42-.81c.47-.72.57-.7,1.57.33,1,1.01.98,1.03-1.64,1.03s-2.36-.56-2.38,3.83c-.02,3.15-.02,3.48-.09,3.69-.21.74-.81,1.16-1.87,1.32-.09.02-.21.04-.26.04-.06.02-.11,0-.15-.02ZM160.95,12.99c.3-.29.81-2.57,1.04-4.74.15-1.32.08-1.41-.85-1.39q-.74.02-1.04,1.35c-.11.5-.38,1.59-.57,2.4-.49,2.01-.51,1.86.43,2.22.3.12.57.21.6.23.09.04.3-.02.38-.08Z"/>
      <path class="cls-1" d="M182.07,18.83c-.42-.1-.42-.14-.34-1.31.11-1.8.13-2.88.13-6.73s-.02-4.55-.13-5.71c-.08-.7-.08-.74,0-.74.04,0,.4.16.79.35,1.29.6,1.34.58,1.49-.72.09-.73.15-1.62.15-2.09,0-.41-.06-.41.81-.17,1.57.41,1.87.58,1.46.79-.26.14-1.25,1.53-1.51,2.17-.32.73,1.34.72,1.93-.02.32-.39.4-.46.51-.46.25,0,1.42.95,1.59,1.3.09.15.08.17-.26.37q-.4.23-.4,1.86c.02,1.16.04,1.39.08,1.53.08.16.08.19,0,.45-.09.33-.09,4.7,0,6.81.06,1.26.08,1.18-.47,1.45-.98.48-1.29.39-1.29-.43s.04-.79-1.57-.79-1.61,0-1.57.95q.02.54-.15.7c-.3.31-.93.52-1.25.46ZM186.44,10.43c.23-.14.23-.19.23-2.4-.02-2.59.15-2.34-1.66-2.34-1.74.02-1.55-.25-1.55,2.44,0,2.2,0,2.19.23,2.32.17.14,2.59.12,2.76-.02ZM186.44,16.08c.23-.15.23-.17.23-2.53-.02-2.75.15-2.48-1.63-2.48s-1.59-.29-1.59,2.57c0,2.36,0,2.32.23,2.46.17.14,2.59.12,2.76-.02ZM193.41,19.43s-.06-.17-.08-.33c-.06-.87-.57-1.32-1.81-1.62-.36-.08-.45-.16-.38-.27.06-.1.02-.1,1.06,0,2,.17,2.27.08,2.55-.99.34-1.26.59-4.97.62-9.11,0-1.59.19-1.45-1.91-1.45-1.95,0-1.83-.04-2.34.85-.79,1.37-2.17,3.17-2.44,3.17-.23,0-.21-.08.21-.93,1.02-2.19,1.72-4.55,1.95-6.61.08-.74.02-.68.76-.46,1.49.48,1.95.75,1.55.93-.25.12-.34.27-.72,1.22-.55,1.35-.62,1.3,1.25,1.3,1.63,0,1.47.04,2.02-.58.53-.62.51-.62,1.13-.08,1.04.89,1.17,1.14.7,1.39-.43.23-.42.17-.47,2.07-.19,7.74-.57,10.06-1.7,10.95-.53.41-1.8.77-1.95.56ZM192.24,13.45c-.38-.14-.42-.19-.49-.58-.21-.99-.72-2.15-1.47-3.27-.42-.62-.3-.66.66-.17,1.76.89,2.74,2.26,2.4,3.4-.15.52-.64.81-1.1.62Z"/>
      <path class="cls-1" d="M220.13,10.2c-.25-.1-.32-.16-.4-.37-.11-.29-.59-1.24-.74-1.47-.26-.41-.43-.45-1.19-.31-1.68.33-5.56.95-8.64,1.39-2.02.29-2.29.35-2.53.56-.23.17-.32.17-.38.02-.23-.85-.51-2.13-.47-2.17.02-.02.68-.04,1.47-.06,1.87-.06,1.7.04,2.27-1.16.89-1.88,1.4-3.23,1.76-4.68.09-.35.17-.64.19-.66.02-.02.38.12.79.29.43.15.93.35,1.11.41.79.23.95.39.55.54-.21.1-.4.29-.83.95-.76,1.12-1.66,2.32-2.38,3.17-.89,1.04-.83,1.08,1.34,1.01,5.58-.21,5.92-.23,5.99-.43.09-.27-.49-1.03-1.76-2.26-.83-.83-.83-.93,0-.62,2.65.99,4.44,2.51,4.93,4.16.34,1.12-.23,1.99-1.1,1.68ZM208.14,19.52c-.34-.08-.36-.16-.28-1.45.09-1.66.13-3.42.13-5.45,0-1.3.02-1.86.04-1.86s.4.17.83.39c1.13.56.62.5,4.73.5s3.78.06,4.31-.62q.47-.56,1.21,0c1.13.85,1.25,1.08.74,1.35-.47.27-.49.39-.4,3.69.09,3.09.15,2.79-.64,3.06-1.04.37-1.27.27-1.23-.54.06-.97.45-.87-3.89-.87s-3.91-.08-3.91.75q0,.43-.13.54c-.3.29-1.13.56-1.49.5ZM217.35,17.12c.26-.14.26-.08.28-2.36,0-2.96.59-2.57-3.95-2.57s-3.95-.39-3.95,2.57c.02,2.28.02,2.22.28,2.36.17.08,7.15.1,7.33,0Z"/>
      <path class="cls-1" d="M231.04,19.45c-.38-.17-.51-.64-.42-1.41.3-2.36.04-3.58-.81-3.77-.49-.1-.44-.37.09-.41.72-.04.72-.06,1.4-2.26.81-2.59.81-2.73.26-2.42-.55.29-.95.12-1.15-.58-.19-.62-.68-1.55-1.12-2.11-.15-.19.15-.21.6-.06.95.35,1.74.97,1.91,1.51.28.85.4.72.95-1.12q.34-1.12.49-1.12c.11.02.13.16.06.5-.09.48.06.56.77.43.53-.12.93-1.08.43-1.08-.15,0-.28-.12-.32-.29-.08-.25-.42-.89-.62-1.16-.3-.37-.26-.48.17-.37s.53.02.87-1.01c.34-1.01.38-1.12.43-1.12.21,0,1.21.46,1.27.6.06.08-.06.21-.17.21-.09,0-.36.27-.51.5-.08.12-.23.31-.34.45-.53.6-.6.97-.23,1.16.23.12.34-.04.6-.79.19-.62.23-.64.43-.5,1.29.79,3.7,1.01,4.18.35.34-.48-.3-.66-1.55-.43-.81.16-.72.19-.95-.29-.25-.5-.25-.48.3-.43,1.15.14,1.53.08,1.85-.29.47-.54.45-.54.81-.29.76.5.98.95.57,1.16-.09.06-.13.25-.04.39.17.25,1.04.39,1.23.17.15-.15.45-1.22.55-1.91.04-.27.15-.25,1.02.17.57.29.66.44.34.56-.19.08-.32.21-.81.83-.59.72-.62.83-.4,1.16.32.46.51.29.83-.68.21-.62.17-.6.6-.39,1.02.48,1.27.73.85.87-.21.08-.38.23-.72.68-.17.23-.47.58-.64.79-.64.7-.6.91.11.91.59,0,.77-.21.53-.62-.19-.33-.11-.43.25-.27,1.1.46,1.64,1.43,1.1,1.95-.23.21-.64.12-.74-.17-.21-.72-.91-.44-.87.33.04.37.25.83.25.52,0-.43,1.11.43,1.42,1.06.36.77.08,1.55-.51,1.39-.25-.08-.3-.17-.38-.64-.09-.66-.43-1.57-.57-1.59-.15-.02-.19.27-.21,1.49q-.02,1.16-.13,1.26c-.44.33-.44.43,0,.85.38.37.42.46.21.58-.25.14-.32.46-.26,1.22q.04.52-.06.66c-.13.21-.11.27.26.52.96.66,1.25,1.06.87,1.26-.36.17-.47.35-.62.85-.4,1.53-1.25,2.24-2.68,2.26q-.4,0-.43-.23c-.15-.77-.68-1.14-1.98-1.35-.17-.02-.26-.15-.19-.23.06-.06.23-.04,1.15.02,1.97.15,2.15.1,2.48-.6.4-.83.53-.79-3.55-.79s-3.72-.04-3.91.48c-.11.35-.62.43-1.42.21-.21-.06-.21-.08,0-.74.25-.77.47-1.72.6-2.51.11-.77.11-.75.64-.46,1.29.75.93.7,4.16.7s3.06.04,3.12-.56c.08-.79.21-.75-3.14-.75s-3.89.04-4.33.27c-.21.1-.23.1-.32.04-.06-.02-.17-.06-.25-.08-.11-.02-.15-.06-.34-.43q-.25-.5.23-.46c1.7.16,7.64.17,7.98.02.72-.35,1.17-2.3.66-2.82-.17-.17-.3-.06-.66.62-.47.89-.72,1.2-.89,1.14-.15-.06-.15-.12.02-.77.08-.35.17-.79.19-1.01.15-1.26.11-1.24.68-.99.47.21.72.14.76-.25.04-.5-.45-.56-1.04-.12-.21.16-.21.14-.4-.25-.17-.37-.3-.5-.47-.46-.26.04-.51.1-.66.16-.17.04-.21.04-.4-.02-.81-.21-2.21.12-1.87.46.47.46,1.23.46,1.7.02.36-.33.4-.33.85.02.57.45.66.6.42.79-.28.23-.34.6-.25,1.59.08.68-.02.85-.57,1.04-.45.14-.6.1-.6-.15,0-.08-.04-.17-.08-.23-.3-.39-1.1-.19-1.1.27,0,.17-.34.39-.7.43-.4.06-.49-.06-.47-.58,0-.58-.11-.75-.42-.58-.21.12-.57,0-.6-.19-.23-1.7-.59-1.7-.57,0,.02,1.16.04,1.12-.42,1.3-.76.29-.83.19-.81-.91.04-1.35-.08-1.41-.76-.37-.59.91-.81,1.12-.98.93-.06-.06-.06-.08.06-.39.21-.56.42-1.53.49-2.2.06-.45.04-.45.57-.23.4.15.6.08.64-.27.04-.46-.38-.54-.83-.16-.19.16-.23.14-.36-.19-.19-.5-.36-.7-.47-.54-.15.16-.11-.02-.64,2.77-.83,4.33-.85,4.56-.49,6.01.62,2.42.09,4.14-1.08,3.58ZM231.93,4.82c-.28-.1-.32-.14-.45-.54-.21-.64-.64-1.47-1.06-2.01q-.28-.37-.23-.43c.21-.27,1.93.6,2.38,1.18.7.95.28,2.15-.64,1.8ZM239.69,6.58c.17-.08.34-.27.38-.41.09-.39-.36-.44-1.53-.21-.47.1-.45.12-.68-.33-.25-.48-.25-.5,0-.46,1.64.17,2.04.1,2.17-.44.08-.27.02-.29-1.4-.31-.98-.02-1.27-.04-1.32-.08-.21-.17-.55.04-.96.62-.17.23-.42.54-.57.72-.6.64-.6.89,0,.89.47,0,.68-.25.47-.62-.28-.48.34-.33,1,.27.32.29.4.33,1.04.39.83.08,1.21.08,1.4-.02ZM237.73,8.96c.06-.19.08-1.06.02-1.2-.04-.12-.15-.14-.4-.04-.28.1-.62-.08-.62-.31,0-.17-.19-.31-.38-.29-.21.02-.34.41-.26.77.04.23.15.48.19.39.04-.21.38-.02.89.5.42.41.49.44.57.17ZM243.3,15.64c.08-.04.21-.16.26-.23.25-.37.19-.45-.34-.41-.4.02-.45,0-.45-.16,0-.08-.11-.21-.25-.29-.15-.06-5.88-.06-6.03.02-.42.21-.53.97-.17,1.12.23.12,6.77.06,6.97-.06ZM239.83,9.97c.53-.33.25-1.37-.36-1.37-.42,0-.59.19-.59.72,0,.62.47.93.94.66ZM242.53,6.56c.55-.17.79-.97.32-1.04-.21-.04-.28-.12-.4-.37-.25-.64-.45-.79-.98-.73-.59.06-.66.15-.38.5.3.39.36.48.36.56,0,.12-.17.29-.26.29-.34,0-.25.43.17.73.17.14.81.17,1.17.06Z"/>
    </g>
    <g>
      <path class="cls-1" d="M48.69,31.25h3.81c2.09,0,3.15,1.11,3.15,2.59,0,1.23-.72,2.03-1.56,2.28.74.22,1.92.95,1.92,2.55,0,2.03-1.54,3.03-3.43,3.03h-3.88v-10.45ZM52.23,35.68c1.67,0,2.32-.64,2.32-1.76,0-.98-.69-1.74-2.05-1.74h-2.76v3.5h2.49ZM49.73,40.77h2.78c1.35,0,2.39-.65,2.39-2.09,0-1.24-.8-2.08-2.74-2.08h-2.42v4.17Z"/>
      <path class="cls-1" d="M68.19,36.68h-5.27v4.08h5.78l-.15.94h-6.69v-10.45h6.58v.95h-5.53v3.54h5.27v.94Z"/>
      <path class="cls-1" d="M76.86,32.2h-3.45v-.95h7.98v.95h-3.46v9.5h-1.08v-9.5Z"/>
      <path class="cls-1" d="M89.38,32.2h-3.45v-.95h7.98v.95h-3.46v9.5h-1.08v-9.5Z"/>
      <path class="cls-1" d="M105.36,36.68h-5.27v4.08h5.78l-.15.94h-6.69v-10.45h6.58v.95h-5.53v3.54h5.27v.94Z"/>
      <path class="cls-1" d="M112.51,36.94v4.75h-1.07v-10.45h3.9c2.1,0,3.21,1.13,3.21,2.77,0,1.34-.79,2.19-1.88,2.45.97.24,1.7.91,1.7,2.71v.42c0,.73-.05,1.68.14,2.1h-1.06c-.19-.45-.16-1.28-.16-2.21v-.25c0-1.61-.47-2.3-2.41-2.3h-2.37ZM112.51,36.01h2.41c1.73,0,2.51-.65,2.51-1.93,0-1.21-.79-1.89-2.32-1.89h-2.6v3.82Z"/>
      <path class="cls-1" d="M125.65,31.25v10.45h-1.07v-10.45h1.07Z"/>
      <path class="cls-1" d="M133.11,41.7v-10.45h1.48c1.57,2.48,5.14,8.03,5.76,9.16h.02c-.09-1.43-.08-3.02-.08-4.72v-4.44h1.04v10.45h-1.38c-1.47-2.35-5.14-8.21-5.84-9.37h-.02c.08,1.29.07,2.93.07,4.82v4.55h-1.04Z"/>
      <path class="cls-1" d="M156.92,41.7h-.85c-.06-.16-.1-.66-.12-1.56-.41.73-1.27,1.69-3.31,1.69-3.01,0-4.57-2.28-4.57-5.26,0-3.12,1.68-5.47,4.78-5.47,2.33,0,3.84,1.24,4.16,3.14h-1.07c-.41-1.34-1.35-2.21-3.12-2.21-2.53,0-3.62,1.99-3.62,4.49,0,2.28,1.07,4.37,3.53,4.37s3.15-1.64,3.15-3.7v-.11h-3.18v-.94h4.21v5.57Z"/>
      <path class="cls-1" d="M174.39,32.2h-3.45v-.95h7.98v.95h-3.46v9.5h-1.08v-9.5Z"/>
      <path class="cls-1" d="M185.01,38.3l-1.24,3.4h-1.07l3.78-10.45h1.29l3.95,10.45h-1.15l-1.27-3.4h-4.3ZM189,37.36c-1.09-2.94-1.66-4.42-1.88-5.16h-.02c-.25.83-.9,2.65-1.78,5.16h3.67Z"/>
      <path class="cls-1" d="M199.03,31.25v10.45h-1.07v-10.45h1.07Z"/>
      <path class="cls-1" d="M208.15,41.7l-2.85-10.45h1.12c.75,2.92,2.13,8.04,2.35,9.25h.01c.23-1.14,1.82-6.53,2.53-9.25h1.1c.66,2.45,2.22,8.21,2.42,9.22h.01c.33-1.63,1.95-6.88,2.6-9.22h1.07l-3.13,10.45h-1.18c-.66-2.44-2.16-8-2.37-9.06h-.02c-.29,1.45-1.78,6.55-2.49,9.06h-1.17Z"/>
      <path class="cls-1" d="M225.17,38.3l-1.24,3.4h-1.07l3.78-10.45h1.29l3.95,10.45h-1.15l-1.27-3.4h-4.3ZM229.16,37.36c-1.09-2.94-1.66-4.42-1.88-5.16h-.02c-.25.83-.9,2.65-1.78,5.16h3.67Z"/>
      <path class="cls-1" d="M238.12,41.7v-10.45h1.48c1.57,2.48,5.14,8.03,5.76,9.16h.02c-.09-1.43-.08-3.02-.08-4.72v-4.44h1.04v10.45h-1.38c-1.47-2.35-5.14-8.21-5.84-9.37h-.02c.07,1.29.07,2.93.07,4.82v4.55h-1.04Z"/>
    </g>
  </g>
</svg>