<?xml version="1.0" encoding="UTF-8"?>
<svg id="_圖層_1_拷貝" xmlns="http://www.w3.org/2000/svg" version="1.1" xmlns:xlink="http://www.w3.org/1999/xlink" viewBox="0 0 896.2 102.1">
  <!-- Generator: Adobe Illustrator 29.8.6, SVG Export Plug-In . SVG Version: 2.1.1 Build 1)  -->
  <defs>
    <style>
      .st0 {
        fill: #fff;
      }

      .st1 {
        filter: url(#drop-shadow-1);
      }
    </style>
    <filter id="drop-shadow-1" x="0" y="5.1" width="896.2" height="90.9" filterUnits="userSpaceOnUse">
      <feOffset dx="0" dy="0"/>
      <feGaussianBlur result="blur" stdDeviation="4.7"/>
      <feFlood flood-color="#231815" flood-opacity="1"/>
      <feComposite in2="blur" operator="in"/>
      <feComposite in="SourceGraphic"/>
    </filter>
  </defs>
  <g class="st1">
    <path class="st0" d="M48.4,52.2s0,3.7-.4,5.5c-1.4,19.3-3.2,28.3-6.6,32.1-3,3.3-6.1,4.2-10.6,4.7-3.4.5-9.1.5-14.9.4-.3-4.4-2.4-10.3-5.3-14.2,5.5.5,11.5.6,14.2.6s3.1-.2,4.4-1.1c1.6-1.3,2.9-6.1,3.8-15.3H0c2.1-9.1,4.4-22.8,5.6-34h27.7v-8.2H4v-12.7h43v33.6h-29c-.4,3-.9,6-1.3,8.8h31.6ZM78.1,8v87.3h-14.1V8h14.1Z"/>
    <path class="st0" d="M104,41.2c-2,2.2-4,4.2-6,6.1-1.6-3.7-4.8-8.8-7.6-12,8.2-6.5,17.4-17.5,22.1-29.6l10.3,6.3c-.7,1.6-1.4,3.2-2.2,4.7,5.7,5.1,12,10.8,15.1,14.7l-6.5,11c-1-1.3-2.2-2.8-3.6-4.5v8.3h-21.6v-5ZM135.8,55.6c-3.3,8.9-8.9,18.2-14.3,25.3,2.2,2.1,4.2,4.1,5.7,5.9l-9.2,8.2c-4.1-5.5-13.1-14.1-19.8-19.7l8.5-7c1.7,1.3,3.7,2.9,5.7,4.6,2.6-3.2,5.3-7,7.4-10.8h-24.2v-11h30.2l1.7-.7,8.2,5.2ZM122.8,34.8c-2.5-2.6-5.2-5.3-7.8-7.9-1.8,2.7-3.6,5.3-5.5,7.9h13.4ZM168.2,76c5,3.5,11.8,8.5,15.4,12.1l-10.5,7.6c-3.1-3.5-9.8-9.1-14.9-12.9l9.8-6.7h-20.5l9.8,6.6c-5.3,4.9-14.1,10.3-21.2,13.1-2.1-2.5-6-6.5-8.9-8.8,6.6-2.3,14.1-7,18.4-10.9h-9.2V25.8h13.2l.6-4.8h-16.8v-11.3h47.7v11.3h-16.2c-.5,1.7-1.1,3.3-1.6,4.8h15.4v50.2h-10.4ZM165.7,35.5h-17.1v4.2h17.1v-4.2ZM165.7,48.7h-17.1v4.2h17.1v-4.2ZM165.7,62h-17.1v4.2h17.1v-4.2Z"/>
    <path class="st0" d="M211.1,44.3c0-.7-.2-1.6-.4-2.5-15.4,1.7-18.2,2.3-19.9,3.1-.5-1.8-1.8-6-2.9-8.2,1.9-.4,3.8-1.7,6-3.7.9-.7,2.5-2.2,4.3-4.2-5.1.4-6.8.7-7.8,1.2-.5-1.9-2-6.1-3.1-8.3,1.4-.4,2.8-1.3,4-2.9,1.3-1.4,5.5-7.1,7.8-12.8l9.3,2.8c-2.3,4.4-5.4,9-8.3,12.7l4.6-.2c1.3-1.7,2.7-3.6,3.8-5.4l8,3.5v-5.2h10.7c-.6-1.9-1.3-3.7-2.1-5.4l10.1-3.4c1.4,2.6,2.9,6.1,3.6,8.8h7.8v7h-30.2v-.7c-4.2,5.6-9.1,11.1-13.9,15.5l6.2-.5c-.4-1.3-.8-2.4-1.2-3.6l7.1-2c1.8,3.9,3.4,9.1,3.8,12.3l-7.6,2.3ZM260.4,73.2c-3.2,3.7-6.9,6.7-11.2,9.2,8.8,1.4,18.5,2.2,28.6,2.6-2.5,2.6-5.4,7.6-6.9,10.7-14.1-.8-27-2.8-38.2-6.2-11.8,3.7-25.1,5.4-38.9,6.6-1.1-2.9-4.3-8.2-6.3-10.8,10-.4,19.7-1,28.5-2.4-3.1-1.7-5.9-3.5-8.6-5.5-3.9,2.5-8.1,4.8-12.4,6.5-1.4-2.5-5.3-7.8-7.6-10.2,10-3.1,19.6-8.6,24.6-15.5l-1.8.6c-.3-3.3-1.4-8.2-2.6-12.1l6.9-2c1.2,3.7,2.5,8.6,3,11.8l-4.3,1.3,11.1,3.4c-.6.8-1.1,1.6-1.7,2.4h49.8v9.7h-11.9ZM196.9,47c-.2,5.9-1,12.2-2.6,16.3-1.5-1.1-4.9-2.9-6.8-3.8,1.4-3.7,1.5-8.9,1.6-13.9l7.7,1.4ZM199.7,60.9c0-3.7-.6-9.5-1.3-13.9l7.5-1.6c1,4.3,1.6,10,1.8,13.7l-7.9,1.8ZM245,29.8h-26.3v-6.6h26.3v6.6ZM245,39h-26.3v-6.7h26.3v6.7ZM219,59v-17.4h25.6v17.4h-25.6ZM219.2,73.2c3.7,2.2,8.2,4,13.4,5.5,4.2-1.5,7.8-3.3,10.9-5.5h-24.3ZM226.9,52.4h9.6v-4h-9.6v4ZM269.2,44c0-.7-.2-1.7-.4-2.6-15.3,1.7-18.1,2.3-19.8,3.1-.5-1.8-1.8-5.8-2.8-8,1.9-.4,3.6-1.6,5.8-3.7.9-.7,2.2-2.1,3.8-3.8-5,.4-6.6.7-7.6,1.2-.5-1.9-2-6-3-8.2,1.3-.3,2.7-1.3,4-2.8,1.2-1.4,5.4-6.9,7.7-12.6l9.2,2.8c-2.4,4.4-5.4,8.9-8.4,12.5h4.1c1.3-2,2.7-3.8,3.9-5.8l8.3,3.7c-2.5,3.5-5.2,6.8-7.9,10l6.8-1.7c1.7,4.3,3.4,10,3.9,13.6l-7.7,2.3ZM255.9,47.2c-.5,5.1-1.6,11-2.8,14.7-1.7-1.2-5.3-3-7.3-3.8,1.1-3.7,1.5-8.4,1.8-12.7l8.2,1.9ZM258.4,60.3c0-3.7-.5-9.3-1.5-13.6l7.5-1.4c1.1,4.3,1.9,9.8,1.9,13.4l-7.8,1.6ZM267.2,34.8c-.4-1.6-.9-3.1-1.4-4.5-1.4,1.8-3.1,3.5-4.6,5l6-.5ZM269.3,59.4c-.4-3.7-1.6-9.3-2.9-13.6l7-1.7c1.4,4.1,2.8,9.7,3.3,13.2l-7.4,2.1Z"/>
    <path class="st0" d="M372.3,82.7h-37.1v12.7h-14.5v-12.7h-36.2v-12.3h36.2v-3.9h-26v-25.6h26v-3.5h-17.3v-13.5h-17.5v-11.4h17.5v-6.3h13.7v6.3h21.7v-6.3h14.4v6.3h17.5v11.4h-17.5v13.5h-18v3.5h27.3v25.6h-27.3v3.9h37.1v12.3ZM320.7,56.2v-4.9h-12v4.9h12ZM317,27.6h21.7v-3.7h-21.7v3.7ZM335.2,51.3v4.9h12.3v-4.9h-12.3Z"/>
    <path class="st0" d="M474.9,80.1c2.8.3,5.7.4,8.8.4,6,0,21.6,0,29.1-.3-2,3.2-4.2,9.7-4.9,13.9h-25c-16.8,0-29.3-2.6-38-15-3,6.7-7,12.2-12,16.4-2.2-2.4-8-7.2-11.2-9.2,10.2-7.1,14.7-20,16.2-35.6l14.1,1.3c-.5,3.8-1.1,7.5-1.8,11,2.3,6.3,5.8,10.3,10.1,12.9v-27.8h-18.5v-12.9h51.2v12.9h-18.2v8.9h25v12.7h-25v10.4ZM439.6,41.2h-13.7V15.9h34.8c-.8-2.3-1.8-4.8-2.8-6.9l14-3.8c1.8,3.3,3.6,7.3,4.8,10.8h32.7v25.3h-14.3v-12.5h-55.5v12.5Z"/>
    <path class="st0" d="M601.5,72.5c-2.8,3.6-6.2,6.7-10,9.5,1.2.7,2.7,1,4,1,2.2,0,2.8-1.3,3.3-5.9,2.6,2.3,6.8,4.3,10,5.2-1.9,10.9-5.5,12.9-14,12.9s-11.3-2.3-15.6-6.3c-5.8,2.6-12,4.7-18.3,6.4-1.2-2.7-4.6-8.2-6.7-10.7,6.2-1.1,12.3-2.7,17.9-4.8-1.6-3-3.1-6.3-4.2-9.8h-16.4v2.1l12.6-.6v9c0,0-12.6.8-12.6.8v2.6c0,5.7-1.2,8.2-5.4,9.7s-9.4,1.6-16.4,1.6c-.7-3.2-2.3-7.4-3.8-10.3,3.6.3,9,.3,10.3.2,1.4,0,1.9-.4,1.9-1.6v-1.3c-6.3.4-12.2.7-17.4,1l-1.1-10.1c5.2,0,11.5-.4,18.5-.6v-2.6h-18.2v-9.8h18.2v-2.2c-4.6.4-9.2.6-13.5.7-.4-2.2-1.6-5.8-2.8-8,9.9-.5,21-1.5,29.2-2.9h-30.9v-10.1h35.7v-2.1h-26.1v-9.2h26.1v-2.1h-31.1v-9.8h15.4c-.9-1.6-1.8-3.2-2.9-4.5l12.2-3.7c2.3,2.3,4.4,5.7,5.4,8.2h17.7c1.3-2.6,2.8-6,3.5-8.4l15.5,2.7c-1.6,2.2-3.1,4-4.5,5.7h14.6v9.8h-31.6v2.1h26.8v9.2h-26.8v2.1h36.1v10.1h-16.1c4.8,2,9.9,4.7,12.9,7l-5.2,5.3h9v9.8h-12.8l7.4,2.4ZM565.5,60.2c-.7-3.6-1.1-7.3-1.3-11.2h13.2c.2,3.9.7,7.7,1.5,11.2h12c-3.5-2.2-8.1-4.6-12-6.1l6.2-6.3h-28.6l6.8,6.7c-3.5.8-7.6,1.6-11.8,2.2v3.5h14ZM582,70.1c.6,1.4,1.2,2.6,1.9,3.8,1.7-1.2,3.3-2.4,4.7-3.8h-6.6Z"/>
    <path class="st0" d="M631.1,69.1c-2.5,6.6-6.5,14.5-9.7,19.5-2-1.7-6.4-4.7-9-6.1,3.1-4.3,6.2-10.9,8.1-16.5l10.5,3.1ZM645.4,64.1v30.5h-13.5v-30.5h-17.1v-11.3h17.1v-5.7h-17.8v-11.1h8.1c-.5-2.3-1.4-5.5-2.2-7.9l7.5-1.8h-11.9v-11h15.1c-.7-2.3-1.4-4.8-2.2-6.8l14-3.3c1.2,3.1,2.8,6.9,3.8,10.1h12.8v11h-10.7l7.3,1.3c-1.4,3.1-2.7,5.9-3.8,8.3h8.8v11.1h-15.3v5.7h13.4v11.3h-13.4ZM631.5,26.3c1,2.6,2,5.7,2.4,7.8l-6.9,1.9h12.6c1.1-2.9,2.6-6.7,3.3-9.7h-11.5ZM704,49.6h-8v45.4h-13.5v-45.4h-6.5c0,14-1.2,33.8-9.2,45.6-2.2-2.3-7.8-6.6-10.7-8,1.6-2.5,2.8-5.3,3.7-8.3l-6.5,4c-1.5-3.6-4.7-9.3-7.3-13.4l8.9-5c2.1,3,4.4,6.7,6.1,9.7,1.8-8.2,2-17.2,2-24.8V15.3c10.4-2,21.6-5.2,28.7-8.5l10.5,10c-7.8,3.1-17.3,5.5-26.3,7.2v13h28v12.6Z"/>
    <path class="st0" d="M738,65.8c0-1-.4-2.2-.6-3.6-18.4,2.6-22.1,3.5-24.5,4.7-.7-2.4-2.7-8.4-4.2-11.8,2.7-.7,4.7-2.6,7.7-6.1,1.1-1.1,2.8-3.3,4.8-6.1-5.6.7-7.6,1.2-9.1,1.9-.7-2.3-2.6-8-4-11.1,2-.6,3.6-2.2,5.5-5.1,1.9-2.6,7.6-12.8,10.7-22.7l12,4.8c-3.1,7.1-7.4,14.6-11.9,21l4.2-.3c2.2-3.8,4.4-8,6.2-12.1l11.3,6.8c-3.5,6.6-8,13.2-12.8,19.5l9.4-2.9c2.3,6.2,4.8,14.4,5.6,19.4l-10.4,3.6ZM723.5,70.8c-.5,9-2,18.5-4,24.5-2.6-1.3-7.9-2.9-10.7-3.7,2.2-5.5,3.2-14.3,3.5-22.4l11.2,1.7ZM733.7,69.1c1.1,6.1,2.2,13.9,2.5,19.1l-10.4,2.1c0-5.2-1-13.2-1.9-19.3l9.8-1.9ZM735,52.1c-.6-2.1-1.2-4.1-1.8-6-1.8,2.3-3.7,4.6-5.5,6.7l7.4-.7ZM743.5,65.8c1.5,4.3,3.3,9.8,4,13.5l-9.7,3.4c-.6-3.7-2.2-9.5-3.6-13.9l9.3-3ZM766.3,25.1c-3,5.1-6.1,9.9-9.2,14.2,3.9,4.9,7.7,10.4,9.6,14.2l-11,4.2c-2-5-6.2-11.8-11.1-18.3,3.8-5.7,7.8-12.4,10-17l11.7,2.5ZM799.9,80.8v12.4h-55v-12.4h20.2v-10.2h-16.3v-12h47.2v12h-16.9v10.2h20.8ZM798.8,22h-52.4v-12.1h52.4v12.1ZM771.7,57.2c-2-4.9-6.2-11.6-11.3-17.9,3.9-5.5,7.7-12.1,9.9-16.6l11.7,2.5c-3,4.9-6.1,9.7-9.1,13.9,3.9,4.7,7.7,10,9.7,13.7l-10.9,4.4ZM788.6,57.8c-2.3-5-7.1-11.9-12.5-18.3,4-5.6,8.1-12.4,10.4-17l11.8,2.6c-3.1,5.1-6.3,9.8-9.3,14.2,4.1,4.7,8.3,10,10.4,13.8l-10.8,4.7Z"/>
    <path class="st0" d="M817.3,53c-2.9-3.4-9.1-8.4-13.6-12l6.8-7.5c4.4,3.1,10.8,7.9,14,11.1l-7.2,8.4ZM825.1,65c-2.9,9.7-6.4,20.1-9.8,29.1l-10-6c3.2-7.1,7.6-18.6,10.9-29.2l8.9,6.2ZM820.6,28.1c-3-3.7-9.5-9.5-14.3-13.4l7.2-7.4c4.9,3.6,11.5,8.9,14.8,12.6l-7.6,8.2ZM873.2,55.5h12.9v40.1h-12.9v-11.4h-29.4c-1.9,4.5-4.8,8.6-9.5,11.7-2.2-2-7.2-5.4-10.1-6.9,8.7-5.8,9.8-15.9,9.8-21.8v-11.6h12.8v4.3h26.5v-4.3ZM851.2,30.2s0,2,0,3c0,10.8-.4,15.9-1.8,17.8-1.2,1.6-2.6,2.2-4.5,2.5-1.3.3-3.5.4-5.7.4-.2-2.1-.7-4.6-1.4-6.7-1.8,3.3-4.3,6-7.6,8.1-.9-1.7-3.4-5.2-5.1-6.7,3.8-2.4,6.1-5.9,7.2-10.3h-3.5v-8.2h22.7ZM854.3,25.7h-25.6v-10.7h24.6c-.4-2.4-.9-5.3-1.4-7.6l12.8-1.6c1,2.8,1.8,6.4,2.2,9.2h27.3v10.7h-25.4l5.8,1.8c-3.3,2.9-6.8,6-9.9,8.5h.7v19h-9.8v-18.9h0,0c1.1-1,2.1-2.2,3.2-3.3l-5.5,2.4c-.5-2.2-1.8-5.4-3.2-7.9l4.3-1.7ZM840.8,38.3c-.6,2.8-1.4,5.3-2.5,7.7.8,0,1.3,0,1.8,0,.8,0,1.2-.2,1.7-.7.4-.7.5-2.5.6-7h-1.6ZM873.2,73.7v-3.7h-26.6c0,1.1,0,2.4-.3,3.7h26.9ZM857.6,25.7c1.1,1.8,2,3.8,2.6,5.5,1.6-1.9,3.3-3.8,4.4-5.5h-7ZM892.5,32.8c-1.6.8-3.3,1.7-5.2,2.4,1.8,5.3,4.8,10.3,8.9,12.8-1.8,1.4-4.3,4.2-5.5,6.2-4.6-3.6-7.6-9.8-9.7-16.7l-2.4.7v6.7l2.8-.7c.3,2,1,4.9,1.5,6.5-7.7,2.5-9.9,3.6-11.1,4.5v-.3c-.7-2.1-2.3-5.7-3.5-7.5,1.3-.8,2.7-2.6,2.7-6.4v-8.1h0,0c5.2-1.7,10.8-4.1,14.1-6.5l7.5,6.2Z"/>
  </g>
</svg>